<svg width="25" height="29" viewBox="0 0 25 29" fill="none" xmlns="http://www.w3.org/2000/svg">
<path d="M23.4399 1.39948H1.56396V27.0931H23.4399V1.39948Z" fill="#FFDF96"/>
<path d="M22.2021 0.422678L0.422363 2.48752L2.80211 28.0681L24.5818 26.0033L22.2021 0.422678Z" fill="white" stroke="#FCDE9A" stroke-width="0.367647" stroke-miterlimit="10"/>
<path opacity="0.4" d="M10.7748 8.25401L2.23206 9.0639L2.44797 11.3848L10.9907 10.5749L10.7748 8.25401Z" fill="#FFDF96"/>
<path opacity="0.4" d="M19.6458 7.41329L11.6298 8.17325L11.8457 10.4942L19.8617 9.73421L19.6458 7.41329Z" fill="#FFDF96"/>
<path opacity="0.3" d="M15.5357 2.44654L1.73743 3.7547L2.13856 8.06665L15.9369 6.75849L15.5357 2.44654Z" fill="#FFDF96"/>
<path opacity="0.2" d="M11.084 11.5698L2.54126 12.3797L3.18936 19.3463L11.7321 18.5364L11.084 11.5698Z" fill="#FFDF96"/>
<path opacity="0.1" d="M19.6067 22.8063L13.0593 23.427L13.09 23.7569L19.6374 23.1362L19.6067 22.8063Z" fill="#FFDF96"/>
<path opacity="0.1" d="M22.947 21.4856L12.9702 22.4314L13.0009 22.7613L22.9777 21.8155L22.947 21.4856Z" fill="#FFDF96"/>
<path opacity="0.1" d="M22.8543 20.4915L12.8776 21.4374L12.9083 21.7673L22.885 20.8214L22.8543 20.4915Z" fill="#FFDF96"/>
<path opacity="0.1" d="M22.7618 19.4975L12.785 20.4434L12.8157 20.7733L22.7925 19.8274L22.7618 19.4975Z" fill="#FFDF96"/>
<path opacity="0.1" d="M22.6688 18.4996L12.692 19.4454L12.7227 19.7753L22.6995 18.8295L22.6688 18.4996Z" fill="#FFDF96"/>
<path opacity="0.1" d="M22.5761 17.5056L12.5994 18.4514L12.6301 18.7813L22.6068 17.8355L22.5761 17.5056Z" fill="#FFDF96"/>
<path opacity="0.1" d="M22.4836 16.5115L12.5068 17.4574L12.5375 17.7873L22.5143 16.8414L22.4836 16.5115Z" fill="#FFDF96"/>
<path opacity="0.1" d="M22.3909 15.5175L12.4142 16.4633L12.4449 16.7932L22.4216 15.8474L22.3909 15.5175Z" fill="#FFDF96"/>
<path opacity="0.1" d="M22.2979 14.5196L12.3212 15.4654L12.3519 15.7953L22.3286 14.8495L22.2979 14.5196Z" fill="#FFDF96"/>
<path opacity="0.1" d="M22.2053 13.5256L12.2285 14.4714L12.2592 14.8013L22.236 13.8554L22.2053 13.5256Z" fill="#FFDF96"/>
<path opacity="0.1" d="M22.1127 12.5315L12.136 13.4774L12.1667 13.8073L22.1434 12.8614L22.1127 12.5315Z" fill="#FFDF96"/>
<path opacity="0.1" d="M22.0201 11.5375L12.0433 12.4833L12.074 12.8132L22.0508 11.8674L22.0201 11.5375Z" fill="#FFDF96"/>
<path opacity="0.1" d="M21.9271 10.5396L11.9503 11.4854L11.981 11.8153L21.9578 10.8695L21.9271 10.5396Z" fill="#FFDF96"/>
</svg>
