<svg xmlns="http://www.w3.org/2000/svg" xmlns:xlink="http://www.w3.org/1999/xlink" width="25" height="29" fill="none" xmlns:v="https://vecta.io/nano"><path d="M23.4399 1.39948H1.56396V27.0931H23.4399V1.39948Z" fill="#ffdf96"/><path d="M22.2021.422678L.422363 2.48752 2.80211 28.0681l21.77969-2.0648L22.2021.422678z" fill="#fff" stroke="#fcde9a" stroke-width=".367647" stroke-miterlimit="10"/><g fill="#ffdf96"><path opacity=".4" d="M10.7748 8.25401l-8.54274.80989.21591 2.3209 8.54273-.8099-.2159-2.32089zm8.871-.84072l-8.016.75996.2159 2.32095 8.016-.75999-.2159-2.32092z"/><path opacity=".3" d="M15.5357 2.44654L1.73743 3.7547l.40113 4.31195L15.9369 6.75849l-.4012-4.31195z"/><path opacity=".2" d="M11.084 11.5698l-8.54274.8099.6481 6.9666 8.54274-.8099-.6481-6.9666z"/><path opacity=".1" d="M19.6067 22.8063l-6.5474.6207.0307.3299 6.5474-.6207-.0307-.3299z"/><use xlink:href="#B" opacity=".1"/><path opacity=".1" d="M22.8543 20.4915l-9.9767.9459.0307.3299 9.9767-.9459-.0307-.3299zm-.0925-.994l-9.9768.9459.0307.3299 9.9768-.9459-.0307-.3299z"/><use xlink:href="#B" x="-0.2782" y="-2.986" opacity=".1"/><path opacity=".1" d="M22.5761 17.5056l-9.9767.9458.0307.3299 9.9767-.9458-.0307-.3299zm-.0925-.9941l-9.9768.9459.0307.3299 9.9768-.9459-.0307-.3299zm-.0927-.994l-9.9767.9458.0307.3299 9.9767-.9458-.0307-.3299zm-.093-.9979l-9.9767.9458.0307.3299 9.9767-.9458-.0307-.3299zm-.0926-.994l-9.9768.9458.0307.3299 9.9768-.9459-.0307-.3298zm-.0926-.9941l-9.9767.9459.0307.3299 9.9767-.9459-.0307-.3299z"/><use xlink:href="#B" x="-0.9269" y="-9.9481" opacity=".1"/><use xlink:href="#B" x="-1.0199" y="-10.946" opacity=".1"/></g><defs ><path id="B" d="M22.947 21.4856l-9.9768.9458.0307.3299 9.9768-.9458-.0307-.3299z"/></defs></svg>