<svg xmlns="http://www.w3.org/2000/svg" width="27" height="25" fill="none" stroke="#9b47b0" stroke-width=".364641" stroke-miterlimit="10" xmlns:v="https://vecta.io/nano"><path d="M6.5579 22.1949l-.80061-3.0219c-.75435-.1338-1.5087-.5423-2.05667-1.211l-.0854.0144c-.56576.0723-1.1244-.0397-1.619-.3289-.59778-.3506-1.024775-.9145-1.202687-1.5905l-.348709-1.3086c-.177912-.6759-.088956-1.3844.256194-1.9917.298893-.5314.761462-.929 1.320112-1.1423.06761-.4085.20994-.8025.41276-1.1604.47324-.83498 1.24183-1.40974 2.10648-1.6447 3.02807-.82779 3.08144-.75188 4.03861-1.40616l5.49042-4.17872c.6654-1.4423 1.6759-2.382153 2.9355-2.725559 1.6261-.4446216 3.3946.191584 4.978 1.789329 1.5016 1.5146 2.7043 3.77386 3.3875 6.35483.6547 2.47248.7436 4.96308.2526 7.00548-.5551 2.3135-1.7862 3.8389-3.4729 4.3016-.1672.047-.3415.0796-.5123.1049-1.1067.1482-2.2702-.188-3.3733-.9688l-5.9921-.723.5587 2.1147c.4661 1.7604-.5587 3.5678-2.2951 4.0414s-3.51553-.564-3.9781-2.3244z" fill="#9b47b0"/><path d="M7.26969 22.1949l-.80061-3.022c-.75435-.1337-1.5087-.5422-2.05667-1.2109l-.08539.0144c-.56221.0759-1.12441-.0397-1.61901-.3289-.59778-.3507-1.02477-.9146-1.20269-1.5905l-.3487-1.3086c-.177916-.676-.08896-1.3845.25619-1.9918.29889-.5313.76147-.929 1.32011-1.1422.06761-.4085.20994-.8025.41276-1.1604.47325-.83501 1.24183-1.40977 2.10648-1.64473 3.02807-.82779 3.08145-.75188 4.03861-1.40616l5.49043-4.17872c.6653-1.4423 1.6759-2.382153 2.9355-2.72556 1.6261-.4446211 3.3946.191585 4.978 1.78933 1.5016 1.5146 2.7043 3.77386 3.3875 6.35483.6547 2.47251.7436 4.96311.2526 7.00551-.5551 2.3135-1.7863 3.8389-3.4729 4.3016-.1672.047-.3416.0795-.5123.1048-1.1067.1482-2.2702-.1879-3.3733-.9687l-5.9921-.723.5587 2.1147c.4661 1.7604-.5587 3.5678-2.2951 4.0413s-3.51554-.5639-3.97811-2.3243z" fill="#fff"/></svg>