<svg xmlns="http://www.w3.org/2000/svg" xmlns:xlink="http://www.w3.org/1999/xlink" width="1440" height="800" fill="none" xmlns:v="https://vecta.io/nano"><style><![CDATA[.B{fill:#fff}.C{opacity:.66}.D{fill:#80413e}.E{fill:#ffa38f}.F{fill:#fce6d8}.G{fill:#c9c9c9}.H{fill:#eaeaea}.I{fill:#e2e2e2}.J{fill:#ddd}.K{fill:#562ba1}.L{fill:#28546b}.M{fill:#ff4f95}.N{opacity:.5}.O{fill:#104744}.P{fill:#ffdc8a}.Q{opacity:.22}.R{fill:#205d57}.S{fill:#ab5653}.T{fill:#032e49}.U{opacity:.35}.V{fill:#24225c}.W{fill:#fc5151}]]></style><path d="M0 0h1440v800H0z" class="B"/><g opacity=".15"><mask id="A" mask-type="alpha" maskUnits="userSpaceOnUse" x="156" y="233" width="1284" height="567"><path fill="#c4c4c4" d="M156 233.647h1283.67v566.068H156z"/></mask><g mask="url(#A)"><path opacity=".76" d="M1510.61 329.896c-28.32-9.527-57.36-9.405-83.73-1.532-30.77 9.179-63.73 4.842-91.7-10.921-7.44-4.18-15.45-7.594-24-10.067a112.18 112.18 0 0 0-26.67-4.372 160.91 160.91 0 0 1-87.94-30.603c-18.79-13.638-40.21-24.332-63.82-31.177-54.98-15.954-114.29-8.047-162.953 22.207-23.548 14.648-44.084 33.964-60.508 56.294-7.559 10.276-33.895 72.317-41.959 70.122-29.261-7.942-60.003-7.89-87.453 6.532-20.587 10.816-35.009 26.074-45.007 44.571-10.398 19.229-29.923 31.944-51.73 33.442-2.525.174-4.964.47-7.228.906-13.725 2.63-26.666 9.37-38.005 17.347-27.572 19.351-55.562 49.083-64.044 81.688-46.087 177.136 43.596 49.135 87.941 61.989 42.307 12.262 86.443-10.694 101.108-51.59a112.07 112.07 0 0 0 38.005 19.437c42.725 12.384 86.844-1.689 114.834-32.57 25.551 30.968 60.351 54.847 101.819 66.883 99.53 28.861 203.16-20.431 245.31-111.716 26.51 4.076 52.78-1.55 74.69-14.631 15.24 38.423 47.41 69.67 90.18 82.072 75.6 21.928 154.74-23.462 173.33-100.865 16.61-69.269-22.94-140.733-90.47-163.446z" fill="#d6f6fd"/><path opacity=".47" d="M893.108 573.569c-36.228-15.484-75.818-9.353-105.062 12.105-9.44-18.463-25.517-33.633-46.435-41.541a87.02 87.02 0 0 0-26.474-5.521c-19.404-.923-38.11-8.239-52.079-21.754-15.083-14.596-33.319-26.423-54.203-34.33-82.158-31.091-173.966 10.328-205.056 92.486a173.44 173.44 0 0 0-2.438 6.967c-2.526-1.236-5.121-2.386-7.803-3.396-44.728-16.912-94.699 5.626-111.612 50.337-.017.034-.034.087-.052.122-2.351 6.252-9.109 9.614-15.449 7.506-2.752-.923-5.678-1.428-8.622-2.194-61.989-16.059-89.125 34.643-100.203 62.807-13.028 33.146 32.867 46.958 66.065 59.516 31.682 11.983 66.918-2.926 80.66-33.372a86.53 86.53 0 0 0 27.938 17.226c31.996 12.105 66.674 4.006 90.013-17.958 17.697 25.308 42.917 45.739 73.972 57.478 74.53 28.199 157.002-3.257 194.867-70.68 20.065 4.737 40.548 2.02 58.157-6.671 9.336 30.393 32.101 56.293 64.131 68.416 56.329 21.319 119.432-8.256 138.748-65.89 17.522-52.201-8.413-110.027-59.063-131.659z" fill="#d6f6fd"/><path d="M604.152 647.887s65.699-75.121 80.033-67.945c14.335 7.158 44.188-28.67 59.725-43.004s68.085-74.059 81.218-74.059 48.977-53.751 74.059-51.364 37.029 20.308 62.11 4.772 54.643-56.137 91.963-62.111c21.53-3.448 39.42 5.974 39.42 5.974l77.64 59.725 86.33 89.996-165.17 91.546-487.328 46.47z" class="L"/><path d="M753.698 577.886c-29.4 24.053-52.757 46.452-68.276 62.25l406.068-38.702 150.63-83.499-5.3-28.721-66.5-69.339-77.64-59.725s-17.89-9.423-39.42-5.974c-36.3 5.8-65.262 44.362-89.89 60.769-11.078 22.974-26.823 51.452-55.179 58.819-45.442 11.809-38.266 17.174-74.111 44.049s-24.594 14.439-80.382 60.073z" class="L Q"/><path d="M1121.78 382.566c-7.91-11.251-29.12-22.399-29.12-22.399s-49.87 7.159-63.31 37.622c-13.45 30.463-34.036 33.929-56.435 46.069-22.399 12.158-46.801 54.743-63.382 55.144s-49.483 33.146-76.358 59.132-36.908-10.224-54.639-4.476c-56.136 18.149-99.14 86.008-99.14 86.008s166.319-1.794 185.148-8.953c18.811-7.159 220.036-70.767 220.036-70.767s51.03-30.951 51.4-37.622c.36-6.706 5.99-111.036-14.2-139.758z" class="L Q"/><path d="M929.545 635.19s8.935-89.282 29.244-93.897 96.071-53.576 108.001-73.467c53.25-88.69 77.53-94.473 94.25-81.34s26.28-1.202 38.21-20.309c11.95-19.107 84.27-107.5 105.45-84.805s62.98 93.166 85.68 103.912c22.69 10.747 21.49-9.562 41.8 11.949 20.31 21.493 46.59 87.192 46.59 87.192l14.33 79.876-89.57 58.68-473.985 12.209z" class="L"/><path d="M1432.18 397.267c-20.31-21.493-19.11-1.202-41.8-11.949-19.49-9.231-53.07-62.493-75.58-91.737-10.64 3.466-22.03 11.582-30.81 30.933-17.92 39.416-15.41 46.592-48.02 64.497-32.61 17.922-16.35 39.416-43.28 55.544-26.95 16.129-86.58 5.818-95.29 43.23-8.69 37.396-10.12 85.782-40.76 101.893-20.54 10.799-45.55 23.078-59.097 43.77l405.987-10.433 89.57-58.68-14.33-79.876s-26.28-65.699-46.59-87.192z" class="L Q"/><path d="M1483.94 570.328l8.36-10.416-13.53-75.453s-26.28-65.698-46.59-87.192-19.11-1.201-41.8-11.948c-11.57-5.469-28.06-26.44-44.3-48.682-7.68 10.938-16.56 59.986-33.49 46.592-23.11-18.271-34.85 12.976-42.55 73.223-2.72 21.197-42.01-12.401-74.36 5.608-32.34 18.01-25.08 75.087-94.05 118.161-18.57 11.582 29.8 47.985 32.97 58.697l268.93-15.92 80.41-52.67z" class="L Q"/><path d="M1310.38 512.362l-15.68-51.904-3.06 50.232-12.11-40.112-1.69 27.641-15.1-50.005-3.48 57.198-10.1-33.441-2.93 47.881h-.07l-10.49-34.731-2.05 33.79-6.39-21.127-.65 10.537-14.63-48.42-3.55 58.174-10.29-34.138-.39 6.113-6.34-18.445-4.67 47.097-9.38-27.276-3.66 36.89-1.15.122-8.9-25.917-2.72 27.276-.22.035-5.75-16.738-.87 8.691-13.59-39.52-4.74 47.915-9.58-27.85-.01.139-14.34-41.715-5.99 60.369-12.02-34.974-5.03 50.754-12.56-36.524-3.54 35.653-7.59-22.102-1.11 11.147-17.42-50.668-6.08 61.414-12.28-35.688-7.66 77.229 16.93-1.985 15.97-1.864 5.8-.679 25.1-2.927 232.99-27.188-3.59-30.76-3.34.401zm-330.011 89.734l-8.917-37.517-9.458 34.522-6.88-29.001-5.208 19.003-8.587-36.159-10.764 39.311-5.747-24.175-9.023 32.919-.069-.017-5.957-25.099-6.358 23.218-3.64-15.276-1.985 7.246-8.309-35.009-10.955 39.99-5.87-24.68-1.149 4.197-3.937-13.411-10.642 32.188-5.817-19.822-8.343 25.204-1.15-.018-5.539-18.846-6.165 18.655-.227-.018-3.57-12.157-1.968 5.939-8.413-28.739-10.834 32.763-5.939-20.257-.035.104-8.9-30.341-13.656 41.28-7.437-25.43-11.478 34.678-7.786-26.544-8.064 24.367-4.72-16.059-2.508 7.612-10.799-36.838-13.899 41.976-7.612-25.952-17.469 52.792 17.051.296 16.059.279 5.853.104 25.255.436 234.561 4.023.366-21.667-3.362-.07z" fill="#011c29"/><path d="M363.982 793.272s43.231-92.365 278.558-158.029c50.964-14.23 75.366-19.246 110.653-24.054 35.271-4.807 151.045 3.327 264.587-54.516 45.41-23.131 135.72-12.541 214.88-41.976 57.17-21.267 96.37-25.36 122.03-15.746 25.65 9.615 105.27 140.681 105.27 140.681v136.466L1298.4 798.81H969.675L679.43 810.027l-184.416-12.836-131.032-3.919z" fill="#488c6f"/><path opacity=".53" d="M1308.78 616.641s-39.49-9.963-69.33-14.37c-29.81-4.406-104.87 5.644-177.36 30.237s-116.068 1.724-141.34 14.004c0 0 36.628-16.46 62.528-15.188 25.882 1.271 64.742-7.786 92.012-15.676 27.28-7.89 86.2-42.255 157.35-30.55 26.08 4.284 76.14 31.543 76.14 31.543z" fill="#467260"/><path d="M980.526 677.897v-.035c0-6.81-5.522-12.349-12.349-12.349-1.724 0-3.379.366-4.86.993-1.968-7.089-8.447-12.297-16.163-12.297-3.257 0-6.288.941-8.866 2.543-3.204-4.859-8.186-7.995-13.777-7.995-7.437 0-13.777 5.522-16.337 13.307a17.3 17.3 0 0 0-12.106-4.946c-8.551 0-15.64 6.2-17.069 14.334-1.167-.574-2.455-.923-3.849-.923-4.372 0-7.977 3.17-8.709 7.316h114.085v.052z" class="O"/><path d="M1080.52 677.897v-.035a18.41 18.41 0 0 0-18.41-18.41 18.34 18.34 0 0 0-7.26 1.498c-2.93-10.573-12.6-18.324-24.09-18.324-4.86 0-9.37 1.411-13.22 3.797-4.79-7.245-12.21-11.93-20.554-11.93-11.095 0-20.553 8.238-24.35 19.855-4.667-4.545-11.025-7.367-18.061-7.367-12.75 0-23.322 9.231-25.447 21.371-1.742-.853-3.676-1.358-5.748-1.358-6.514 0-11.896 4.72-12.976 10.92h170.116v-.017z" class="R"/><path d="M1013.22 602.445l8.79-1.48 31.13 29.818-8.62 1.011-31.3-29.349z" class="D"/><path d="M1047.08 683.68l-53.735 8.796v-57.773l25.065-32.258 28.67 26.388v54.847z" class="F"/><path d="M1047.08 683.68l-53.735 8.796v-57.773l25.065-32.258 28.67 26.388v54.847z" class="F"/><path d="M948.669 680.442l44.676 11.739v-55.98l-44.676-10.259v54.5z" class="F"/><path d="M1020.2 603.909l-26.681 42.725-44.85-9.928.157-7.838 25.638-29.871 45.736 4.912z" class="F"/><path d="M1022.01 602.445l-28.491 42.133-50.946-11.286v-1.463l79.437-29.384z" class="D"/><path d="M1022.01 600.965l-28.491 42.15-50.946-11.286 31.892-36.35 47.545 5.486z" class="S"/><path d="M959.764 662.815l-7.402-1.62V644.84l7.402 1.62v16.355zm28.043 6.844l-7.403-1.62v-16.355l7.403 1.62v16.355zm-13.813 17.453l-7.42-2.055v-36.159l7.42 1.62v36.594z" class="T"/><path d="M978.871 600.967l-5.521 6.636-5.644 6.514-5.765 6.41-5.887 6.305 5.504-6.636 5.643-6.514 5.765-6.41 5.905-6.305zm26.229-1.969l-5.519 6.636-5.644 6.514-5.765 6.41-5.887 6.305 5.504-6.636 5.643-6.514 5.766-6.41 5.902-6.305zm2.44 12.924l-5.52 6.636-5.645 6.515-5.765 6.409-5.887 6.305 5.504-6.636 5.643-6.514 5.77-6.41 5.9-6.305zm-18.898-14.283l-5.521 6.636-5.643 6.514-5.766 6.41-5.887 6.305 5.504-6.636 5.643-6.514 5.766-6.41 5.904-6.305z" class="D"/><path d="M1000.05 611.922l-5.521 6.636-5.643 6.515-5.765 6.409-5.888 6.305 5.504-6.636 5.644-6.514 5.765-6.41 5.904-6.305zm-28.233-7.246c1.968.069 3.902.383 5.835.679l5.73 1.341c-1.968-.07-3.901-.383-5.834-.679l-5.731-1.341z" class="D"/><path d="M967.462 615.37c1.968.07 3.902.384 5.835.68l5.73 1.341c-1.968-.07-3.901-.383-5.834-.68l-5.731-1.341zm12.941 11.479c1.969.07 3.902.383 5.835.679l5.731 1.341c-1.969-.069-3.902-.383-5.835-.679l-5.731-1.341zm5.226-8.31c1.968.07 3.902.384 5.835.68l5.73 1.341c-1.968-.07-3.901-.383-5.834-.679l-5.731-1.342z" class="D"/><path d="M1019.11 642.506l-11.73 2.63v-12.018l11.73-2.648v12.036zm19.14 19.299l-30.9 6.201v-12.018l30.9-6.201v12.018zm-3.03-22.261l-11.74 2.63v-12.018l11.74-2.647v12.035z" class="T"/><path d="M1161.51 599.153l10.71-1.219 37.99 24.75-10.52.836-38.18-24.367z" class="D"/><path d="M1202.81 666.61l-65.56 7.298V625.94l30.58-26.788 34.98 21.911v45.547z" class="F"/><path d="M1202.81 666.61l-65.56 7.298V625.94l30.58-26.788 34.98 21.911v45.547z" class="F"/><path d="M1082.75 663.928l54.5 9.736v-46.487l-54.5-8.517v45.268z" class="F"/><path d="M1170.03 600.373l-32.57 35.479-54.71-8.256.17-6.496 31.3-24.803 55.81 4.076z" class="F"/><path d="M1172.22 599.152l-34.76 34.992-62.17-9.371v-1.219l96.93-24.402z" class="D"/><path d="M1172.22 597.934l-34.76 34.992-62.17-9.37 38.93-30.185 58 4.563z" class="S"/><path d="M1096.28 650.499l-9.05-1.341V634.37l9.05 1.341v14.788zm34.21 5.679l-9.04-1.341v-14.788l9.04 1.341v14.788zm-16.86 13.272l-9.04-1.707v-30.01l9.04 1.341v30.376zm45.9-17.435l-10.75 1.463v-13.551l10.75-1.463v13.551zm18.37-2.317l-10.75 1.463V637.61l10.75-1.463v13.551zm17.38-1.95l-10.74 1.463V635.66l10.74-1.463v13.551zm-24.08-38.598l-17.04 17.226 35.74-2.857-18.7-14.369z" class="T"/><path d="M1119.59 597.933l-6.81 5.573-6.92 5.435-7 5.312-7.12 5.173 6.81-5.574 6.91-5.434 7-5.312 7.13-5.173zm32.01-1.655l-6.81 5.574-6.91 5.434-7.01 5.312-7.12 5.173 6.81-5.573 6.91-5.435 7.01-5.312 7.12-5.173zm2.96 10.747l-6.81 5.573-6.91 5.435-7.01 5.312-7.12 5.173 6.81-5.574 6.92-5.434 7-5.312 7.12-5.173zm-23.06-11.862l-6.81 5.574-6.91 5.434-7.01 5.312-7.12 5.173 6.81-5.573 6.91-5.434 7.01-5.313 7.12-5.173z" class="D"/><path d="M1145.42 607.025l-6.81 5.573-6.92 5.435-7 5.312-7.12 5.173 6.81-5.574 6.91-5.434 7-5.312 7.13-5.173zm-34.44-6.027c2.39 0 4.74.261 7.11.505l7.02 1.167c-2.39 0-4.74-.261-7.11-.505l-7.02-1.167z" class="D"/><path d="M1105.67 609.882c2.39 0 4.74.262 7.11.506l7.02 1.167c-2.39 0-4.74-.262-7.11-.506l-7.02-1.167zm22.16 2.629c2.38 0 4.73.262 7.1.506l7.02 1.167c-2.38 0-4.74-.262-7.1-.506l-7.02-1.167z" class="D"/><path d="M1189.71 678.665v-.017a7.8 7.8 0 0 0-7.8-7.803 7.95 7.95 0 0 0-3.09.627 10.6 10.6 0 0 0-10.22-7.768 10.53 10.53 0 0 0-5.61 1.619c-2.04-3.082-5.17-5.051-8.71-5.051-4.7 0-8.71 3.501-10.33 8.413a10.85 10.85 0 0 0-7.66-3.118c-5.4 0-9.89 3.919-10.8 9.057-.73-.365-1.55-.574-2.44-.574-2.77 0-5.05 2.003-5.5 4.633h72.16v-.018z" class="O"/><path d="M1209.81 684.308c0-3.501-2.82-6.322-6.31-6.322-.88 0-1.72.191-2.49.505-1.01-3.623-4.3-6.27-8.23-6.27-1.66 0-3.21.487-4.53 1.306-1.64-2.473-4.18-4.076-7.04-4.076-3.8 0-7.04 2.822-8.32 6.793-1.61-1.55-3.78-2.526-6.19-2.526-4.35 0-7.98 3.153-8.71 7.316-.59-.296-1.25-.47-1.96-.47-2.23 0-4.08 1.619-4.45 3.744h58.23z" class="R"/><path d="M663.807 707.995v-.035c0-7.472-6.061-13.551-13.551-13.551a13.71 13.71 0 0 0-5.347 1.098c-2.16-7.768-9.266-13.481-17.731-13.481-3.571 0-6.897 1.027-9.719 2.804-3.518-5.33-8.987-8.779-15.118-8.779-8.152 0-15.119 6.062-17.923 14.596-3.431-3.344-8.116-5.417-13.289-5.417-9.371 0-17.157 6.793-18.724 15.728-1.289-.627-2.7-1.01-4.233-1.01-4.789 0-8.743 3.466-9.544 8.03h125.179v.017z" class="O"/><path opacity=".21" d="M1450.52 658.13s-70.56-48.177-113.25-19.508-69.72 53.524-155.57 54.674c-85.85 1.132-184.435 23.862-223.276 49.744-38.824 25.865-205.527 19.525-259.451 61.031-53.907 41.506-160.572 114.136-160.572 114.136l498.839 25.326s422.56-21.563 441.71-37.553 19.78-201.711 19.78-201.711l-48.21-46.139z" fill="#467260"/><path d="M591.454 652.693l26.736-35.723-1.672 35.061-25.064.662z" class="D"/><path d="M754.552 710.746L638.081 725.08v-62.267l116.471-14.335v62.268z" class="F"/><path d="M597.446 706.74l40.635 18.34v-62.267L618.19 616.97l-20.744 34.661v55.109z" class="F"/><path d="M754.552 710.746L638.081 725.08v-62.267l116.471-14.335v62.268z" class="F"/><path d="M629.93 639.77l-3.693-3.762 11.844 37.5 116.471-11.705v-22.19" class="F"/><path d="M762.215 653.825l-124.308 13.081-19.717-49.936 144.025 35.061v1.794z" class="D"/><path d="M762.215 652.032L638.081 664.05l-19.891-47.08 113.527-9.022 30.498 44.084z" class="S"/><path d="M676.417 699.129l-14.996 1.777v-23.009l14.996-1.428v22.66zm27.398 17.714l-14.997 1.794v-42.725l14.997-1.428v42.359zm27.38-21.703l-14.997 1.794v-23.009l14.997-1.445v22.66zm-109.852-8.465l-12.941-1.968v-20.658l12.941 1.969v20.657z" class="T"/><path d="M762.215 652.032L638.081 664.05l-19.891-47.08 113.527-9.022 30.498 44.084z" class="S"/><use xlink:href="#T" class="D"/><path d="M659.766 615.977l4.981 7.036 4.842 7.141 4.703 7.229 4.564 7.315-4.982-7.037-4.842-7.141-4.703-7.228-4.563-7.315zm-4.163 12.488l4.981 7.036 4.842 7.142 4.703 7.228 4.563 7.315-4.981-7.036-4.842-7.142-4.703-7.228-4.563-7.315zm20.657-11.582l4.981 7.036 4.842 7.141 4.703 7.229 4.563 7.315-4.981-7.037-4.842-7.141-4.703-7.228-4.563-7.315zm-13.237 12.608l4.981 7.037 4.843 7.141 4.702 7.228 4.564 7.316-4.982-7.037-4.842-7.141-4.703-7.228-4.563-7.316z" class="D"/><path d="M691.971 626.13c-1.951.349-3.902.436-5.852.54-1.951.035-3.919.087-5.888-.122 1.951-.348 3.902-.435 5.853-.54l5.887.122zm2.856 11.2c-1.95.348-3.901.435-5.852.54-1.951.035-3.919.087-5.887-.122 1.951-.349 3.902-.436 5.852-.54l5.887.122zm-14.369 9.597c-1.951.348-3.902.435-5.852.539-1.951.035-3.919.088-5.887-.121 1.95-.349 3.901-.436 5.852-.54l5.887.122zm-4.041-8.936c-1.951.349-3.902.436-5.853.54-1.95.035-3.919.088-5.887-.121 1.951-.349 3.902-.436 5.853-.54l5.887.121zm45.442-20.706l4.982 7.036 4.842 7.142 4.702 7.228 4.564 7.315-4.982-7.036-4.842-7.142-4.702-7.228-4.564-7.315z" class="D"/><use xlink:href="#T" x="10.659" y="-9.751" class="D"/><path d="M691.971 624.252l4.981 7.037 4.842 7.141 4.703 7.228 4.563 7.316-4.981-7.037-4.842-7.141-4.703-7.228-4.563-7.316zm20.675-11.6l4.981 7.037 4.842 7.141 4.703 7.228 4.563 7.315-4.981-7.036-4.842-7.141-4.703-7.229-4.563-7.315z" class="D"/><path d="M699.39 625.262l4.982 7.037 4.842 7.141 4.702 7.228 4.564 7.315-4.982-7.036-4.842-7.141-4.702-7.229-4.564-7.315zm28.966-3.344c-1.951.348-3.902.435-5.853.54-1.95.035-3.918.087-5.887-.122 1.951-.348 3.902-.435 5.853-.54l5.887.122z" class="D"/><path d="M731.212 633.101c-1.95.348-3.901.435-5.852.54-1.951.034-3.919.087-5.887-.122 1.951-.349 3.901-.436 5.852-.54l5.887.122zm-14.386 9.613c-1.951.349-3.902.436-5.852.54-1.951.035-3.919.087-5.887-.122 1.95-.348 3.901-.435 5.852-.54l5.887.122zm-4.042-8.935c-1.95.349-3.901.436-5.852.54-1.951.035-3.919.087-5.887-.122 1.951-.348 3.901-.435 5.852-.54l5.887.122z" class="D"/><path d="M843.625 714.318v-.035c0-7.472-6.061-13.551-13.551-13.551-1.898 0-3.692.401-5.347 1.097-2.16-7.768-9.266-13.481-17.731-13.481-3.57 0-6.897 1.028-9.719 2.805-3.518-5.33-8.987-8.779-15.118-8.779-8.151 0-15.118 6.061-17.923 14.596-3.431-3.344-8.116-5.417-13.289-5.417-9.388 0-17.156 6.793-18.724 15.728-1.289-.627-2.7-1.01-4.232-1.01-4.79 0-8.744 3.466-9.545 8.029h125.179v.018z" class="O"/><path d="M797.312 723.271v-.018a8.54 8.54 0 0 0-8.534-8.534 8.31 8.31 0 0 0-3.362.696c-1.359-4.894-5.835-8.499-11.165-8.499-2.247 0-4.337.644-6.131 1.759-2.212-3.362-5.66-5.522-9.527-5.522-5.138 0-9.527 3.815-11.287 9.197-2.159-2.108-5.103-3.414-8.36-3.414-5.904 0-10.799 4.285-11.791 9.911a5.94 5.94 0 0 0-2.665-.627c-3.014 0-5.504 2.194-6.009 5.068h78.831v-.017z" class="R"/><path d="M547.18 799.96v-.087c0-18.654-15.136-33.79-33.79-33.79a33.63 33.63 0 0 0-13.325 2.734c-5.382-19.385-23.113-33.633-44.223-33.633-8.917 0-17.208 2.578-24.245 6.985-8.796-13.307-22.399-21.877-37.726-21.877-20.361 0-37.709 15.119-44.693 36.438-8.552-8.361-20.239-13.516-33.146-13.516-23.391 0-42.794 16.947-46.696 39.224-3.205-1.55-6.741-2.508-10.538-2.508-11.948 0-21.824 8.674-23.827 20.047H547.18v-.017zm1053.88 0v-.122c0-27.449-22.26-49.709-49.71-49.709-6.97 0-13.59 1.446-19.6 4.023-7.9-28.529-33.99-49.483-65.03-49.483-13.12 0-25.31 3.797-35.67 10.259-12.94-19.577-32.96-32.187-55.5-32.187-29.94 0-55.47 22.242-65.75 53.593-12.59-12.296-29.76-19.89-48.75-19.89-34.41 0-62.94 24.924-68.69 57.704-4.71-2.282-9.93-3.675-15.5-3.675-17.58 0-32.12 12.749-35.05 29.487h459.25zm-530.9 17.278v-.087c0-19.786-16.04-35.81-35.81-35.81-5.02 0-9.79 1.045-14.13 2.909-5.69-20.553-24.505-35.654-46.869-35.654-9.44 0-18.236 2.735-25.708 7.402-9.319-14.108-23.74-23.2-39.973-23.2-21.581 0-39.974 16.024-47.376 38.615-9.074-8.848-21.458-14.335-35.131-14.335-24.802 0-45.355 17.958-49.5 41.576-3.397-1.655-7.142-2.648-11.165-2.648-12.663 0-23.131 9.179-25.255 21.25h330.917v-.018z" class="O"/><path d="M1071.92 814.835v-.052c0-13.133-10.65-23.775-23.78-23.775-3.33 0-6.5.697-9.37 1.933-3.78-13.638-16.27-23.67-31.11-23.67a32.08 32.08 0 0 0-17.066 4.912c-6.183-9.371-15.763-15.397-26.544-15.397-14.318 0-26.545 10.642-31.456 25.638-6.027-5.887-14.248-9.51-23.322-9.51-16.46 0-30.115 11.931-32.867 27.607-2.247-1.097-4.738-1.759-7.42-1.759-8.413 0-15.362 6.096-16.773 14.108h219.708v-.035z" fill="#488c6f"/><path d="M1211.29 810.028v-.052c0-13.133-10.64-23.775-23.77-23.775-3.33 0-6.5.697-9.38 1.934-3.78-13.638-16.26-23.671-31.1-23.671-6.27 0-12.11 1.812-17.07 4.912-6.19-9.371-15.76-15.397-26.55-15.397-14.31 0-26.54 10.642-31.45 25.639-6.03-5.888-14.25-9.51-23.32-9.51-16.46 0-30.12 11.931-32.87 27.606-2.25-1.097-4.74-1.759-7.42-1.759-8.414 0-15.363 6.096-16.774 14.108h219.704v-.035zm-554.258 0v-.052c0-13.133-10.642-23.775-23.775-23.775a23.66 23.66 0 0 0-9.371 1.934c-3.779-13.638-16.268-23.671-31.107-23.671-6.271 0-12.106 1.812-17.069 4.912-6.184-9.371-15.763-15.397-26.545-15.397-14.317 0-26.544 10.642-31.456 25.639-6.026-5.888-14.247-9.51-23.322-9.51-16.459 0-30.115 11.931-32.866 27.606-2.247-1.097-4.738-1.759-7.42-1.759-8.413 0-15.363 6.096-16.773 14.108h219.704v-.035z" class="R"/></g><g clip-path="url(#H)"><path d="M535.122 533.752h-5.134v197.832h5.134V533.752z" fill="#aaa"/><g class="B"><path d="M538.604 480.839h-12.811v2.154h12.811v-2.154zm-.812 31.667H524.98v2.154h12.812v-2.154zm-46.296 217.681a1.61 1.61 0 0 1-.247-.02 1.48 1.48 0 0 1-1.205-1.708l11.395-67.817 7.9-46.685 2.649-15.432.769-4.356c.356-1.965.371-2.041.77-2.403.601-.548 1.532-.501 2.076.105a1.49 1.49 0 0 1 .309 1.45c-.736 3.24-15.321 89.99-22.968 135.631-.121.722-.743 1.235-1.448 1.235zm81.913 0c-.704 0-1.327-.511-1.448-1.235l-22.968-135.631a1.49 1.49 0 0 1 .309-1.45c.544-.606 1.475-.653 2.077-.105.398.362.411.44.767 2.403l.77 4.356 2.649 15.432 7.899 46.685 11.395 67.817c.134.807-.405 1.571-1.205 1.708-.082.013-.164.02-.245.02z"/><path d="M582.728 727.899H481.707v7.374h101.021v-7.374z"/></g><path d="M550.033 526.068s-3.642.542-6.324-1.262-5.854-5.416-6.696-10.051-.952-7.342.785-11.446c2.417-5.711 6.247-5.645 6.247-5.645l5.988 28.404z" class="G"/><path d="M539.864 513.564c1.804 7.818 6.604 13.376 10.717 12.414s5.985-8.083 4.181-15.903-6.604-13.376-10.716-12.413-5.986 8.084-4.182 15.902z" class="H"/><path d="M541.237 513.376c1.661 7.196 5.827 12.368 9.305 11.554s4.951-7.307 3.291-14.503-5.828-12.368-9.305-11.554-4.951 7.309-3.291 14.503z" class="I"/><path d="M541.352 513.283c-1.139-4.935-.803-9.541.642-12.209 2.415 1.801 4.67 5.726 5.787 10.57 1.139 4.935.803 9.54-.642 12.209-2.416-1.801-4.67-5.724-5.787-10.57z" class="J"/><g class="C B"><path d="M548.126 501.888c-.173.709-.734 1.242-1.214 1.79a10.2 10.2 0 0 0-2.308 4.634c-.11.525-.267 1.164-.782 1.303s-.982-.359-1.155-.863c-.262-.765-.136-1.602.005-2.399.358-2.036.86-4.184 2.335-5.621 1.053-1.027 3.612-.849 3.119 1.156z" class="C"/></g><path d="M547.201 491.913s-2.773.411-4.816-.961-4.461-4.125-5.101-7.656-.725-5.591.597-8.716c1.841-4.35 4.759-4.3 4.759-4.3l4.561 21.633z" class="G"/><path d="M539.456 482.387c1.374 5.955 5.03 10.189 8.163 9.454s4.559-6.157 3.185-12.112-5.03-10.189-8.163-9.455-4.559 6.157-3.185 12.113z" class="H"/><path d="M547.586 491.046c2.65-.62 3.772-5.566 2.507-11.046s-4.438-9.421-7.087-8.801-3.773 5.566-2.508 11.047 4.439 9.421 7.088 8.8z" class="I"/><path d="M540.589 482.174c-.868-3.76-.611-7.267.489-9.299 1.84 1.372 3.557 4.36 4.408 8.05.869 3.76.612 7.267-.488 9.299-1.84-1.371-3.557-4.36-4.409-8.05z" class="J"/><g class="C B"><path d="M545.75 473.494c-.133.54-.559.946-.926 1.362a7.76 7.76 0 0 0-1.757 3.529c-.082.4-.203.887-.595.992s-.749-.274-.88-.657c-.198-.582-.104-1.221.003-1.827.273-1.55.656-3.188 1.779-4.281.802-.781 2.751-.646 2.376.882z" class="C"/></g><path d="M513.944 527.512s3.642.541 6.323-1.262 5.855-5.416 6.697-10.052.952-7.341-.785-11.446c-2.417-5.71-6.248-5.644-6.248-5.644l-5.987 28.404z" class="G"/><path d="M524.113 515.009c-1.804 7.818-6.602 13.376-10.716 12.413s-5.986-8.082-4.182-15.902 6.603-13.376 10.717-12.414 5.985 8.083 4.181 15.903z" class="H"/><path d="M522.743 514.824c-1.661 7.196-5.827 12.368-9.305 11.554s-4.951-7.307-3.291-14.503 5.828-12.368 9.305-11.554 4.951 7.307 3.291 14.503z" class="I"/><path d="M522.626 514.726c1.139-4.935.803-9.54-.642-12.208-2.415 1.8-4.67 5.725-5.787 10.569-1.139 4.935-.803 9.541.642 12.209 2.414-1.799 4.668-5.724 5.787-10.57z" class="J"/><g class="C B"><path d="M515.852 503.333c.174.709.734 1.242 1.214 1.79 1.149 1.309 1.954 2.923 2.308 4.634.11.525.268 1.164.782 1.303s.982-.359 1.155-.863c.261-.765.137-1.602-.005-2.399-.357-2.036-.86-4.184-2.335-5.621-1.053-1.027-3.61-.851-3.119 1.156z" class="C"/></g><path d="M516.778 493.354s2.773.411 4.816-.961 4.46-4.125 5.1-7.656.726-5.592-.596-8.717c-1.841-4.35-4.759-4.299-4.759-4.299l-4.561 21.633z" class="G"/><path d="M524.52 483.831c1.374-5.956-.051-11.379-3.184-12.112s-6.788 3.5-8.162 9.456.051 11.378 3.184 12.112 6.787-3.5 8.162-9.456z" class="H"/><path d="M523.477 483.688c-1.265 5.48-4.438 9.42-7.087 8.799s-3.772-5.566-2.507-11.046 4.438-9.421 7.088-8.8 3.771 5.566 2.506 11.047z" class="I"/><path d="M523.39 483.617c.868-3.76.611-7.267-.489-9.299-1.839 1.372-3.556 4.36-4.408 8.05-.869 3.76-.612 7.267.489 9.299 1.839-1.371 3.556-4.36 4.408-8.05z" class="J"/><g class="C B"><path d="M518.23 474.937c.133.54.56.946.926 1.362a7.76 7.76 0 0 1 1.757 3.53c.083.399.203.886.595.991s.749-.274.88-.656c.198-.582.104-1.222-.003-1.828-.272-1.55-.655-3.187-1.779-4.28-.803-.78-2.75-.647-2.376.881z" class="C"/></g><g class="B"><path d="M567.191 693.129h-69.476c-.811 0-1.47-.664-1.47-1.481s.659-1.48 1.47-1.48h69.477c.812 0 1.47.663 1.47 1.48s-.658 1.481-1.471 1.481zm-11.237-66.633H508.95c-.812 0-1.47-.663-1.47-1.48s.658-1.481 1.47-1.481h47.003c.811 0 1.47.663 1.47 1.481s-.657 1.48-1.469 1.48z"/><path d="M560.537 659.813h-57.534c-.812 0-1.47-.663-1.47-1.48s.658-1.481 1.47-1.481h57.534c.812 0 1.47.664 1.47 1.481s-.658 1.48-1.47 1.48zm-18.18 28.561h-18.353v6.549h18.353v-6.549z"/><path d="M542.357 655.057h-18.353v6.55h18.353v-6.55zm0-33.315h-18.353v6.549h18.353v-6.549z"/><path d="M494.276 713.026c-.215 0-.391-.075-.591-.219-.338-.242-.511-.665-.442-1.077a1.09 1.09 0 0 1 .917-.899c2.075-.846 21.922-11.6 35.946-19.269l-29.55-19.42a1.09 1.09 0 0 1 .19-1.927l30.383-12.232-23.593-20.652c-.237-.206-.373-.508-.373-.824v-.523c0-.775.596-1.069 1.678-1.602a96.57 96.57 0 0 1 2.858-1.328l8.588-3.755 11.153-4.737-19.019-24.138c-.371-.473-.294-1.159.175-1.533a1.08 1.08 0 0 1 1.522.176l19.911 25.272c.211.267.285.621.2.951s-.32.602-.634.734l-23.86 10.343 24.154 21.142c.286.249.42.631.358 1.005s-.316.69-.665.831l-30.096 12.117 29.323 19.273c.319.209.506.573.491.957a1.1 1.1 0 0 1-.565.916l-18.815 10.241-13.021 6.986-4.363 2.269c-1.243.626-1.83.922-2.26.922z"/><path d="M570.893 713.025c-.43 0-1.018-.296-2.261-.923l-4.363-2.269-13.021-6.986-18.816-10.241a1.09 1.09 0 0 1-.564-.916c-.015-.384.171-.747.49-.957l29.324-19.273-30.096-12.117a1.09 1.09 0 0 1-.666-.831c-.063-.376.073-.756.358-1.005l24.154-21.142c-3.344-1.652-15.865-6.995-23.86-10.343a1.09 1.09 0 0 1-.633-.734c-.086-.332-.01-.684.2-.951l19.91-25.272c.372-.472 1.054-.552 1.522-.176s.548 1.061.175 1.533l-19.02 24.142 11.153 4.737 8.588 3.754 2.857 1.328c1.082.533 1.679.828 1.679 1.603v.522c0 .317-.136.616-.373.824l-23.593 20.652 30.383 12.233c.376.15.637.5.675.905s-.148.798-.485 1.022l-29.549 19.419 35.944 19.27c.456.064.837.418.918.898.068.411-.105.834-.442 1.078-.195.144-.371.216-.588.216zm-16.07-122.03h-45.872v5.754h45.872v-5.754zm-7.129-62.997H516.99v5.754h30.704v-5.754z"/><path d="M524 593.872h-2.928l.309-60.12h2.928l-.309 60.12zm18.544 0h-2.928l.309-60.12h2.928l-.309 60.12z"/><path d="M539.616 591.429c-.237 0-.475-.078-.675-.238l-15.617-12.546c-.282-.227-.433-.578-.405-.941s.234-.685.548-.862l14.222-8.074-14.059-11.37c-.261-.211-.41-.531-.405-.866a1.1 1.1 0 0 1 .43-.855l14.37-10.928-15.761-10.073c-.506-.323-.655-.997-.334-1.506a1.08 1.08 0 0 1 1.495-.337l17.081 10.918c.301.191.488.52.503.877s-.146.698-.43.915l-14.507 11.033 14.223 11.501c.28.227.43.579.401.939a1.09 1.09 0 0 1-.547.862l-14.218 8.072 14.362 11.537c.467.376.544 1.062.171 1.533-.215.269-.53.409-.848.409zm-5.418-120.469h-4.21v59.915h4.21V470.96z"/><path d="M535.362 468.9h-6.669v2.058h6.669V468.9z"/><path d="M532.497 444.762h-.956v25.167h.956v-25.167z"/><path d="M534.109 444.762c0 1.162-.935 2.105-2.089 2.105s-2.09-.943-2.09-2.105.935-2.105 2.09-2.105 2.089.943 2.089 2.105z"/></g></g><g clip-path="url(#I)"><path d="M831.125 537.815h-2.504v95.995h2.504v-95.995z" fill="#aaa"/><g class="B"><path d="M832.823 512.139h-6.247v1.046h6.247v-1.046zm-.396 15.367h-6.247v1.045h6.247v-1.045zm-22.575 105.626c-.04 0-.08-.004-.121-.01-.391-.066-.654-.437-.587-.828l5.556-32.908 3.852-22.653 1.292-7.488.375-2.114c.174-.953.181-.99.375-1.166.294-.266.747-.243 1.013.051a.72.72 0 0 1 .15.704c-.358 1.572-7.47 43.666-11.199 65.812a.72.72 0 0 1-.706.6zm39.943 0c-.344 0-.647-.248-.706-.6l-11.2-65.812a.72.72 0 0 1 .151-.704c.265-.294.719-.317 1.012-.051.194.176.201.214.374 1.166l.376 2.114 1.291 7.488 3.852 22.653 5.557 32.908a.72.72 0 0 1-.588.828c-.04.006-.08.01-.119.01z"/><path d="M854.339 632.021h-49.261v3.578h49.261v-3.578z"/></g><path d="M838.396 534.088s-1.776.263-3.084-.612-2.854-2.628-3.265-4.878-.464-3.562.383-5.554c1.178-2.77 3.046-2.738 3.046-2.738l2.92 13.782z" class="G"/><path d="M833.437 528.019c.88 3.794 3.22 6.491 5.226 6.024s2.918-3.922 2.039-7.717-3.221-6.49-5.226-6.023-2.919 3.922-2.039 7.716z" class="H"/><path d="M834.107 527.928c.81 3.491 2.841 6.001 4.537 5.606s2.414-3.545 1.605-7.037-2.842-6.001-4.538-5.607-2.414 3.547-1.604 7.038z" class="I"/><path d="M834.163 527.883c-.556-2.395-.392-4.63.313-5.925 1.178.874 2.277 2.779 2.822 5.129.555 2.395.391 4.63-.313 5.924-1.178-.873-2.277-2.777-2.822-5.128z" class="J"/><g class="C B"><path d="M837.466 522.354c-.084.344-.358.602-.592.868a4.94 4.94 0 0 0-1.126 2.249c-.053.255-.13.565-.381.632s-.479-.174-.563-.419c-.128-.371-.067-.777.002-1.164.175-.987.42-2.03 1.139-2.727.513-.498 1.761-.412 1.521.561z" class="C"/></g><path d="M837.015 517.516s-1.352.199-2.348-.467-2.175-2.001-2.487-3.714-.354-2.714.29-4.23c.898-2.111 2.321-2.086 2.321-2.086l2.224 10.497z" class="G"/><path d="M833.239 512.892c.67 2.89 2.452 4.944 3.98 4.588s2.223-2.988 1.553-5.878-2.453-4.944-3.98-4.587-2.224 2.987-1.553 5.877z" class="H"/><path d="M837.203 517.092c1.292-.301 1.84-2.701 1.223-5.36s-2.164-4.571-3.456-4.27-1.84 2.701-1.223 5.36 2.164 4.571 3.456 4.27z" class="I"/><path d="M833.791 512.788c-.424-1.824-.298-3.526.238-4.512.897.665 1.735 2.115 2.15 3.906.423 1.824.298 3.526-.238 4.512-.897-.665-1.735-2.116-2.15-3.906z" class="J"/><g class="C B"><path d="M836.307 508.576c-.064.262-.272.459-.451.661a3.75 3.75 0 0 0-.857 1.712c-.04.194-.099.43-.29.481s-.365-.133-.429-.318c-.097-.283-.051-.593.002-.887.132-.752.319-1.547.867-2.077.391-.379 1.341-.314 1.158.428z" class="C"/></g><path d="M820.798 534.788s1.776.263 3.084-.612 2.854-2.628 3.265-4.878.464-3.562-.383-5.554c-1.179-2.77-3.046-2.738-3.046-2.738l-2.92 13.782z" class="G"/><path d="M825.757 528.72c-.88 3.794-3.22 6.491-5.226 6.024s-2.918-3.922-2.039-7.717 3.22-6.49 5.226-6.023 2.919 3.922 2.039 7.716z" class="H"/><path d="M825.089 528.631c-.81 3.491-2.842 6.001-4.537 5.606s-2.414-3.546-1.605-7.037 2.842-6.002 4.537-5.607 2.414 3.546 1.605 7.038z" class="I"/><path d="M825.032 528.584c.555-2.395.392-4.63-.313-5.925-1.178.874-2.277 2.779-2.822 5.129-.555 2.395-.392 4.63.313 5.924 1.177-.872 2.276-2.777 2.822-5.128z" class="J"/><g class="C B"><path d="M821.728 523.055c.085.344.358.602.593.868a4.95 4.95 0 0 1 1.125 2.249c.053.254.13.565.381.632s.479-.174.564-.419c.127-.371.066-.777-.003-1.164-.174-.987-.419-2.03-1.139-2.727-.513-.498-1.76-.413-1.521.561z" class="C"/></g><path d="M822.18 518.213s1.352.199 2.348-.466 2.175-2.002 2.487-3.715.354-2.714-.29-4.23c-.898-2.111-2.321-2.086-2.321-2.086l-2.224 10.497z" class="G"/><path d="M825.955 513.591c.67-2.89-.025-5.521-1.553-5.877s-3.309 1.699-3.98 4.589.025 5.521 1.553 5.877 3.31-1.699 3.98-4.589z" class="H"/><path d="M825.447 513.522c-.617 2.659-2.165 4.571-3.457 4.27s-1.839-2.701-1.222-5.36 2.164-4.571 3.456-4.27 1.839 2.701 1.223 5.36z" class="I"/><path d="M825.404 513.488c.423-1.825.298-3.526-.239-4.512-.897.665-1.734 2.115-2.149 3.906-.424 1.824-.298 3.526.238 4.512.897-.665 1.735-2.116 2.15-3.906z" class="J"/><g class="C B"><path d="M822.888 509.276c.065.262.273.459.451.661a3.76 3.76 0 0 1 .857 1.713c.04.193.099.43.29.481s.366-.133.429-.319c.097-.282.051-.592-.001-.886-.133-.752-.32-1.547-.868-2.077-.391-.379-1.341-.314-1.158.427z" class="C"/></g><g class="B"><path d="M846.762 615.15h-33.878a.72.72 0 0 1-.716-.719.72.72 0 0 1 .716-.718h33.879a.72.72 0 0 1 .717.718.72.72 0 0 1-.718.719zm-5.479-32.333h-22.92a.72.72 0 0 1-.717-.718c0-.397.321-.718.717-.718h22.92c.395 0 .716.321.716.718s-.32.718-.716.718z"/><path d="M843.518 598.984h-28.055a.72.72 0 0 1-.717-.719.72.72 0 0 1 .717-.718h28.055a.72.72 0 0 1 .717.718.72.72 0 0 1-.717.719zm-8.865 13.859h-8.95v3.178h8.95v-3.178z"/><path d="M834.653 596.676h-8.95v3.178h8.95v-3.178zm0-16.166h-8.95v3.179h8.95v-3.179z"/><path d="M811.207 624.804c-.104 0-.191-.036-.288-.106-.165-.117-.249-.322-.215-.523a.53.53 0 0 1 .447-.436c1.012-.41 10.689-5.628 17.528-9.35l-14.41-9.423c-.165-.107-.256-.299-.236-.496s.146-.366.329-.439l14.816-5.935-11.505-10.021a.53.53 0 0 1-.182-.4v-.254c0-.376.291-.519.819-.777a45.75 45.75 0 0 1 1.393-.645l4.188-1.821 5.438-2.299-9.274-11.713a.53.53 0 0 1 .085-.744.53.53 0 0 1 .743.086l9.709 12.262a.53.53 0 0 1-.212.818l-11.635 5.019 11.779 10.259a.53.53 0 0 1-.15.89l-14.676 5.88 14.299 9.352a.53.53 0 0 1-.036.909c-.046.024-4.629 2.521-9.175 4.969l-6.349 3.39-2.128 1.101c-.606.304-.892.447-1.102.447z"/><path d="M848.568 624.804c-.21 0-.497-.143-1.103-.448l-2.127-1.101-6.35-3.39-9.174-4.969a.53.53 0 0 1-.276-.444c-.007-.186.084-.363.239-.465l14.299-9.351-14.675-5.88a.53.53 0 0 1-.325-.403c-.031-.183.035-.367.175-.488l11.778-10.259c-1.631-.801-7.736-3.394-11.635-5.019a.53.53 0 0 1-.309-.356c-.042-.161-.005-.332.098-.461l9.709-12.263c.181-.229.513-.268.742-.086a.53.53 0 0 1 .085.744l-9.275 11.715 5.439 2.298L840.07 586l1.394.645c.527.258.818.401.818.777v.254a.53.53 0 0 1-.182.4l-11.504 10.02 14.815 5.936c.184.073.311.243.33.439a.53.53 0 0 1-.237.496l-14.408 9.423 17.527 9.35a.53.53 0 0 1 .447.436.54.54 0 0 1-.216.523.46.46 0 0 1-.286.105zm-7.836-59.213h-22.369v2.792h22.369v-2.792zm-3.477-30.568h-14.972v2.792h14.972v-2.792z"/><path d="M825.701 566.987h-1.428l.151-29.172h1.428l-.151 29.172zm9.043 0h-1.428l.151-29.172h1.428l-.151 29.172z"/><path d="M833.316 565.802c-.115 0-.232-.038-.329-.116l-7.615-6.088a.53.53 0 0 1 .069-.875l6.935-3.918-6.855-5.516c-.127-.103-.2-.258-.198-.421a.53.53 0 0 1 .21-.414l7.007-5.303-7.685-4.888a.53.53 0 0 1-.163-.731c.156-.247.482-.32.729-.163l8.329 5.298c.147.092.238.252.245.425a.53.53 0 0 1-.21.444l-7.073 5.354 6.935 5.581a.53.53 0 0 1-.071.873l-6.933 3.917 7.003 5.598a.53.53 0 0 1 .084.744c-.105.13-.259.199-.414.199zm-2.642-58.456h-2.053v29.073h2.053v-29.073z"/><path d="M831.242 506.347h-3.252v.998h3.252v-.998z"/><path d="M829.844 494.634h-.466v12.212h.466v-12.212z"/><path d="M830.631 494.634a1.02 1.02 0 0 1-1.019 1.021 1.02 1.02 0 1 1 0-2.042 1.02 1.02 0 0 1 1.019 1.021z"/></g></g><g clip-path="url(#J)"><path d="M1259.48 479.014h-1.62v62.691h1.62v-62.691z" fill="#aaa"/><g class="B"><path d="M1260.58 462.247h-4.04v.682h4.04v-.682zm-.26 10.035h-4.04v.683h4.04v-.683zm-14.6 68.98a.45.45 0 0 1-.08-.006c-.26-.043-.43-.285-.38-.541.02-.107 1.81-10.863 3.59-21.491l2.49-14.793.84-4.891.24-1.38c.12-.623.12-.647.25-.762.19-.173.48-.158.65.034a.46.46 0 0 1 .1.459c-.23 1.027-4.84 28.517-7.25 42.98-.04.229-.23.391-.45.391zm25.84 0c-.22 0-.42-.162-.46-.391l-7.24-42.98a.48.48 0 0 1 .09-.459c.18-.192.47-.207.66-.034.13.115.13.14.24.762l.24 1.38.84 4.891 2.49 14.793 3.6 21.491c.04.256-.13.497-.38.541a.54.54 0 0 1-.08.006z"/><path d="M1274.5 540.537h-31.87v2.337h31.87v-2.337z"/></g><path d="M1264.18 476.58s-1.14.171-1.99-.4-1.85-1.716-2.11-3.186c-.27-1.469-.3-2.326.24-3.627.77-1.809 1.98-1.788 1.98-1.788l1.88 9.001z" class="G"/><path d="M1260.98 472.617c.57 2.478 2.08 4.239 3.38 3.934s1.89-2.561 1.32-5.039-2.09-4.239-3.38-3.934c-1.3.305-1.89 2.562-1.32 5.039z" class="H"/><path d="M1261.41 472.557c.52 2.28 1.84 3.919 2.94 3.662 1.09-.258 1.56-2.316 1.03-4.596-.52-2.28-1.84-3.919-2.93-3.662-1.1.259-1.56 2.317-1.04 4.596z" class="I"/><path d="M1261.45 472.528c-.36-1.564-.26-3.023.2-3.869.76.571 1.47 1.815 1.82 3.35.36 1.564.26 3.023-.2 3.868-.76-.57-1.47-1.813-1.82-3.349z" class="J"/><g class="C B"><path d="M1263.58 468.917c-.05.225-.23.394-.38.567a3.25 3.25 0 0 0-.73 1.469c-.03.166-.08.369-.24.413-.17.043-.32-.114-.37-.274-.08-.242-.04-.508 0-.76.11-.645.27-1.326.74-1.781.33-.326 1.14-.269.98.366z" class="C"/></g><path d="M1263.29 465.76s-.87.13-1.52-.305c-.64-.435-1.41-1.307-1.61-2.426s-.23-1.772.19-2.762c.58-1.378 1.5-1.362 1.5-1.362l1.44 6.855z" class="G"/><path d="M1260.85 462.738c.43 1.887 1.58 3.229 2.57 2.996s1.44-1.951 1.01-3.838c-.44-1.887-1.59-3.229-2.58-2.996s-1.44 1.951-1 3.838z" class="H"/><path d="M1263.41 465.481c.84-.196 1.19-1.763.79-3.5-.39-1.737-1.4-2.986-2.23-2.789-.84.197-1.19 1.764-.79 3.501s1.4 2.985 2.23 2.788z" class="I"/><path d="M1261.21 462.67c-.28-1.191-.2-2.303.15-2.946.58.434 1.12 1.381 1.39 2.55.27 1.192.19 2.303-.15 2.947-.58-.434-1.13-1.381-1.39-2.551z" class="J"/><g class="C B"><path d="M1262.83 459.919c-.04.171-.17.3-.29.432a2.46 2.46 0 0 0-.55 1.118c-.03.127-.07.281-.19.314s-.24-.087-.28-.208c-.06-.184-.03-.387 0-.579.09-.491.21-1.01.56-1.356.26-.248.87-.205.75.279z" class="C"/></g><path d="M1252.8 477.038s1.15.172 1.99-.4c.85-.571 1.85-1.716 2.12-3.185.26-1.469.3-2.326-.25-3.627-.76-1.81-1.97-1.789-1.97-1.789l-1.89 9.001z" class="G"/><path d="M1256.01 473.075c-.57 2.478-2.09 4.239-3.38 3.934-1.3-.305-1.89-2.561-1.32-5.039s2.08-4.239 3.38-3.934 1.89 2.561 1.32 5.039z" class="H"/><path d="M1255.57 473.017c-.52 2.28-1.83 3.919-2.93 3.661s-1.56-2.316-1.04-4.596 1.84-3.919 2.94-3.661c1.09.258 1.56 2.315 1.03 4.596z" class="I"/><path d="M1255.54 472.986c.36-1.564.25-3.023-.2-3.869-.77.571-1.48 1.815-1.83 3.349-.36 1.564-.25 3.024.2 3.869.76-.57 1.47-1.813 1.83-3.349z" class="J"/><g class="C B"><path d="M1253.4 469.375c.06.225.23.394.38.568a3.15 3.15 0 0 1 .73 1.468c.04.166.09.369.25.413s.31-.114.36-.274c.08-.242.05-.507 0-.76-.11-.645-.27-1.326-.74-1.781-.33-.325-1.13-.27-.98.366z" class="C"/></g><path d="M1253.69 466.213s.88.13 1.52-.305c.65-.435 1.41-1.307 1.61-2.426s.23-1.772-.19-2.762c-.58-1.378-1.5-1.362-1.5-1.362l-1.44 6.855z" class="G"/><path d="M1256.13 463.195c.44-1.887-.01-3.606-1-3.838s-2.14 1.109-2.58 2.996c-.43 1.888.02 3.606 1.01 3.838s2.14-1.109 2.57-2.996z" class="H"/><path d="M1255.81 463.15c-.4 1.736-1.4 2.985-2.24 2.788s-1.19-1.764-.79-3.5 1.4-2.985 2.24-2.789c.83.197 1.19 1.764.79 3.501z" class="I"/><path d="M1255.78 463.127c.27-1.191.19-2.303-.16-2.946-.58.434-1.12 1.381-1.39 2.551-.27 1.191-.19 2.302.16 2.946.58-.434 1.12-1.381 1.39-2.551z" class="J"/><g class="C B"><path d="M1254.15 460.377c.04.171.18.3.29.432.28.315.47.705.56 1.118.02.126.06.281.18.314.13.033.24-.087.28-.208.06-.184.03-.387 0-.579-.08-.491-.21-1.01-.56-1.356-.25-.248-.87-.205-.75.279z" class="C"/></g><g class="B"><path d="M1269.6 529.519h-21.92a.47.47 0 0 1-.47-.469.47.47 0 0 1 .47-.469h21.92c.25 0 .46.21.46.469s-.21.469-.46.469zm-3.55-21.115h-14.83c-.25 0-.46-.21-.46-.469s.21-.469.46-.469h14.83a.47.47 0 0 1 .47.469.47.47 0 0 1-.47.469z"/><path d="M1267.5 518.961h-18.15a.47.47 0 0 1-.47-.469.47.47 0 0 1 .47-.469h18.15a.46.46 0 0 1 .46.469.46.46 0 0 1-.46.469zm-5.74 9.051h-5.79v2.076h5.79v-2.076z"/><path d="M1261.76 517.454h-5.79v2.076h5.79v-2.076zm0-10.557h-5.79v2.076h5.79v-2.076z"/><path d="M1246.59 535.824a.28.28 0 0 1-.18-.069c-.11-.077-.17-.211-.14-.342.02-.152.14-.264.29-.285.65-.268 6.91-3.675 11.34-6.106l-9.33-6.154c-.1-.07-.16-.195-.15-.323a.35.35 0 0 1 .21-.287l9.59-3.877-7.44-6.544c-.08-.065-.12-.161-.12-.261v-.166c0-.245.19-.338.53-.507.21-.103.51-.245.9-.421l2.71-1.19 3.52-1.501-6-7.649c-.12-.15-.09-.368.05-.486.15-.119.37-.094.48.056l6.29 8.008c.06.085.09.197.06.301a.35.35 0 0 1-.2.233l-7.53 3.278 7.62 6.699c.09.079.13.2.11.319s-.1.219-.21.263l-9.49 3.84 9.25 6.107c.1.067.16.182.16.304-.01.121-.08.231-.18.29l-5.94 3.245-4.11 2.214-1.37.719c-.4.198-.58.292-.72.292z"/><path d="M1270.77 535.824c-.14 0-.32-.094-.72-.293l-1.37-.719-4.11-2.213-5.94-3.246a.37.37 0 0 1-.18-.29c0-.121.06-.237.16-.303l9.25-6.107-9.5-3.84c-.11-.045-.19-.145-.21-.263s.03-.24.12-.319l7.62-6.7-7.53-3.277c-.1-.042-.17-.128-.2-.233s0-.216.06-.301l6.29-8.009c.11-.149.33-.174.48-.055.14.118.17.336.05.485l-6 7.651 3.52 1.501 2.71 1.19.9.421c.34.168.53.262.53.507v.166c0 .1-.04.195-.12.261l-7.44 6.544 9.58 3.877c.12.047.21.158.22.286a.35.35 0 0 1-.16.324l-9.32 6.154 11.34 6.106c.15.021.27.133.29.285.02.13-.03.264-.14.342a.3.3 0 0 1-.18.068zm-5.07-38.67h-14.48v1.823h14.48v-1.823zm-2.25-19.963h-9.69v1.823h9.69v-1.823z"/><path d="M1255.97 498.066h-.92l.09-19.052h.93l-.1 19.052zm5.85 0h-.92l.1-19.052h.92l-.1 19.052z"/><path d="M1260.9 497.292a.36.36 0 0 1-.22-.076l-4.92-3.976c-.09-.071-.14-.183-.13-.298a.34.34 0 0 1 .17-.273l4.49-2.559-4.44-3.602c-.08-.067-.13-.169-.12-.275a.35.35 0 0 1 .13-.271l4.54-3.463-4.98-3.192c-.16-.102-.2-.316-.1-.477s.31-.209.47-.107l5.39 3.46c.09.061.15.165.16.278 0 .113-.05.221-.14.29l-4.58 3.496 4.49 3.645c.09.072.14.183.13.297s-.08.217-.17.273l-4.49 2.558 4.53 3.656c.15.119.17.337.06.486a.35.35 0 0 1-.27.13zm-1.71-38.175h-1.33v18.986h1.33v-18.986z"/><path d="M1259.56 458.464h-2.11v.652h2.11v-.652z"/><path d="M1258.65 450.815h-.3v7.975h.3v-7.975z"/><path d="M1259.16 450.815a.66.66 0 0 1-.66.667c-.36 0-.66-.299-.66-.667s.3-.667.66-.667a.66.66 0 0 1 .66.667z"/></g></g><g clip-path="url(#K)"><g class="K"><path d="M936.694 705.096c.006-1.305 1.087-2.359 2.411-2.353s2.392 1.072 2.386 2.377c0 .09-.006.18-.018.267l-.009 1.524 2.735 2.231-7.508-1.138v-2.878h.003v-.03zm-2.678 0c-.007-1.305-1.087-2.359-2.411-2.353s-2.393 1.072-2.387 2.377c0 .09.006.18.019.267l.009 1.524-2.587 2.231 7.357-1.138v-2.878h-.003c.003-.009.003-.018.003-.03z"/></g><path d="M928.884 692.663c0-.012.003-.027.003-.039v-.02c0-.102.01-.201.022-.3l.048-12.84a2.27 2.27 0 0 1-.018-.284v-3.396h3.209 3.176.061 3.176 3.209v3.39c0 .095-.006.191-.018.287l.048 12.84.022.3v.021c0 .011.003.026.003.038a1.9 1.9 0 0 1-.01.273l-.236 13.669c-2.721.411-4.928-.203-4.928-.203l-.243-13.748v-.024l-.194-9.561h-.832-.061-.832l-.194 9.561v.024l-.243 13.748s-2.207.614-4.928.203l-.237-13.669-.003-.27z" class="V"/><path d="M934.019 655.79a.56.56 0 0 1-.622.474.55.55 0 0 1-.426-.653c-.054.302-.537.156-.725-.087-.732-.937-.714-2.231-.638-3.411.028-.401.061-.82.267-1.167s.641-.599 1.027-.471c-.289-.461-.17-1.084.145-1.527s.79-.745 1.251-1.039l2.028-1.284c.131-.084.271-.171.429-.183.291-.024.549.219.637.494s.049.572.006.856c.325-.311.732-.649 1.178-.557.477.099.705.635.811 1.102.133.599.2 1.213.191 1.827.228-.144.55-.054.726.147s.228.482.215.748c-.048 1.111-1.12 1.989-2.237 2.126-.863.105-1.834-.113-2.532.396-.82.593-.869 1.934-1.777 2.392" class="P"/><path d="M929.686 664.091c.079-.997-.671-1.871-1.676-1.946l-.128-.003-.003-.006c-.276-.021-.558.054-.844.206-.085.045-.17.096-.246.153-2.155 1.482-4.329 7.136-4.378 9.376 0 .003-.033.161-.039.242-.067.836.562 1.563 1.399 1.626.79.06 1.485-.488 1.619-1.246 1.308-4.006 3.871-7.366 3.871-7.366l-.003-.009a1.77 1.77 0 0 0 .428-1.027z" class="E"/><path d="M934.012 650.4h-.003v.005z" fill="#ffba9a"/><path d="M939.234 652.02l-.015-.159c-.218.093-.498.132-.792.168-1.163.141-2.317-.5-3.656-.156l-.182 1.767c-.009.09-.058.213-.146.195-.048-.009-.079-.06-.1-.105l-.139-.279c.097.324.188.932-.052.989-.213.051-.513-.599-.559-1.009-.054-.024-.112-.045-.173-.057-.525-.102-1.035.233-1.138.751s.236 1.021.765 1.123c.142.027.285.021.419-.012l-.325 2.83c-.024.093-.043.189-.055.284-.136 1.201.738 2.288 1.959 2.423s2.319-.728 2.456-1.932c.009-.092.012-.182.012-.272l.14-1.21c1.205-.251 1.518-1.41 1.484-2.47-.045-1.063.097-2.869.097-2.869z" class="E"/><g class="W"><path d="M937.64 657.359s-.577.132-1.315-.012l1.172 1.276.143-1.264zm.246-2.813c.03.18.277.291.551.246s.468-.231.435-.412-.277-.291-.551-.246-.465.231-.435.412zm-3.078-.585c-.061.174.103.387.365.475s.524.018.581-.157-.103-.387-.365-.474-.52-.018-.581.156z" class="U"/></g><g class="B"><path d="M941.579 704.857c-1.251.188-2.529.23-3.789.123l-1.075-.135c-.076-.012-.109.102-.033.114 1.275.212 2.58.248 3.868.137l1.059-.125c.079-.009.049-.126-.03-.114zm.177 2.273c-.097.057-.183.132-.281.19-.027.015-.04.054-.021.081s.055.039.082.021c.098-.057.184-.133.282-.19.027-.015.039-.054.021-.081s-.055-.039-.083-.021zm.344.296l-.302.169c-.028.015-.04.054-.022.081s.055.039.083.021l.302-.168c.028-.016.04-.055.022-.082s-.055-.039-.083-.021zm-.512-28.603c-1.09-.144-2.031-1.117-2.25-2.159-.015-.075-.133-.042-.115.033.227 1.078 1.208 2.093 2.335 2.243.075.009.109-.105.03-.117zm-1.193.599c-.999-.569-1.816-1.563-2.032-2.695-.015-.074-.13-.045-.115.033.222 1.162 1.063 2.183 2.086 2.767.067.036.127-.066.061-.105zm1.28.432a3.27 3.27 0 0 1-.751-.183c-.073-.027-.104.09-.034.114.253.093.514.159.782.189.034.003.061-.03.061-.06.003-.036-.024-.057-.058-.06zm-12.578 25.12c1.278.191 2.584.236 3.874.122l1.054-.134c.075-.012.045-.129-.034-.114-1.248.206-2.523.242-3.783.138l-1.081-.126c-.076-.015-.106.102-.03.114zm-.179 2.302c.118.069.246.12.364.189.027.015.067.006.082-.021s.006-.066-.021-.081l-.364-.189c-.028-.015-.067-.006-.082.021s-.01.063.021.081z"/><path d="M928.639 707.486c.118.069.245.12.364.189.027.014.067.005.082-.021s.006-.066-.021-.081l-.365-.189c-.027-.015-.067-.006-.082.021s-.009.063.022.081zm.512-28.546c1.13-.15 2.107-1.165 2.335-2.243.015-.075-.1-.108-.115-.033-.222 1.045-1.16 2.015-2.25 2.159-.076.012-.046.126.03.117zm1.224.587c1.023-.584 1.864-1.605 2.086-2.767.015-.075-.104-.108-.116-.033-.215 1.132-1.032 2.126-2.031 2.695-.067.039-.006.141.061.105zm-1.338.447c.267-.03.529-.096.782-.189.03-.012.051-.039.042-.075-.009-.03-.042-.054-.076-.042-.24.09-.493.156-.751.183-.034.003-.061.024-.061.06s.03.066.064.063z"/></g><path d="M941.156 664.157c-.082-.997.668-1.872 1.67-1.953l.128-.003.003-.006c.276-.02.558.054.844.204.085.045.17.093.246.15 2.158 1.479 4.351 7.127 4.402 9.366 0 .003.034.162.04.243a1.52 1.52 0 0 1-1.397 1.632c-.789.063-1.485-.485-1.621-1.243-1.318-4.003-3.893-7.357-3.893-7.357l.003-.009c-.233-.279-.391-.632-.425-1.024z" class="E"/><use xlink:href="#U" class="M"/><use xlink:href="#U" fill="url(#B)" class="N"/><path d="M934.511 678.238a.42.42 0 0 0 .423-.417.42.42 0 0 0-.423-.417.42.42 0 0 0-.423.417.42.42 0 0 0 .423.417z" fill="#ffd7a6"/><g class="B"><path d="M935.455 676.871l-.034 3.851-.012 1.075c0 .078.122.078.122 0l.033-3.851.012-1.075c0-.078-.121-.078-.121 0zm2.86-18.452c-.377 1.042-1.47 1.695-2.548 1.818-.309.036-.625.03-.932-.027-.079-.015-.115.108-.033.123 1.132.206 2.408-.201 3.161-1.069.209-.24.37-.512.476-.809.025-.081-.097-.114-.124-.036zm-4.576 1.435a2.58 2.58 0 0 1-1.442-1.459c-.027-.075-.152-.042-.125.033a2.72 2.72 0 0 0 1.534 1.545c.076.03.109-.089.033-.119zm-8.835 3.375c.364.452.771.868 1.19 1.272l1.463 1.309.772.608c.063.045.121-.057.06-.102a21.75 21.75 0 0 1-2.796-2.488l-.604-.683c-.046-.063-.131.024-.085.084zm4.017.721l-.015 2.069c0 .078.121.078.121 0l.015-2.069c0-.078-.121-.078-.121 0z"/></g><g class="E"><path d="M933.493 668.651c.456-.081.653.006.091.5l-.091-.5zm3.917-.015c-.558-.119-.844-.057-.154.527l.154-.527z"/></g><path d="M934.001 672.658l2.748.033c.252.003.458-.195.461-.444l.07-5.602c.003-.249-.198-.452-.45-.455l-2.747-.033c-.252-.003-.459.194-.462.443l-.07 5.602a.45.45 0 0 0 .45.456z" class="B"/><path d="M933.555 671.776l3.658.044.059-4.743-3.658-.044-.059 4.743z" fill="#d2dcfa"/><path d="M935.027 668.278a.4.4 0 0 1 .407-.391.4.4 0 0 1 .396.403.4.4 0 0 1-.408.39c-.222-.003-.399-.183-.395-.402z" class="B"/><g class="K"><path d="M936.451 666.67c0-.108.091-.199.204-.196s.202.091.199.202-.092.199-.205.196-.201-.09-.198-.202zm-.313-.003c0-.037.031-.067.068-.067s.068.03.068.067-.031.067-.068.067-.068-.03-.068-.067z"/></g><g class="E"><path d="M931.153 669.334c-.003 0-1.288.275-1.291.275v-.003c-2.926.767-6.035 1.12-6.057 1.123-.865.138-1.454.941-1.317 1.794s.953 1.434 1.818 1.3c.012-.003.021-.006.034-.006 2.161-.27 6.552-1.608 6.552-1.608l-.003-.006 1.284-.273c.726-.278 1.084-1.084.802-1.8s-1.036-.958-1.822-.796z"/><path d="M933.621 669.116c-.018.018-.04.033-.061.051-.088.074-.057.218.055.257.971.332 4.272 1.503.486.862l1.278.512c.868.384 1.084.83-1.436.123 0 0 3.862 1.438-.216.668 0 0 2.882 1.045-.431.47-.361-.063-1.248-.159-1.351-.147-.741.075-1.403-.458-1.479-1.188a1.33 1.33 0 0 1 .929-1.402l.003-.012s1.403-.563 2.135-.691m6.173.784c.003 0 1.287.272 1.29.272v-.003c2.927.755 6.039 1.102 6.057 1.105.865.135 1.458.938 1.321 1.791s-.95 1.437-1.816 1.303c-.012-.003-.021-.006-.033-.006-2.162-.264-6.555-1.59-6.555-1.59l.003-.006-1.822-.447c-.726-.275-.549-.904-.27-1.62s1.035-.958 1.825-.799z"/><path d="M937.258 669.163c.088.075.057.219-.055.258-.968.335-4.269 1.515-.483.865l-1.275.515c-.868.387-1.084.83 1.436.117 0 0-3.859 1.446.219.665 0 0-2.878 1.054.431.467.361-.063 1.248-.162 1.351-.15.741.072 1.403-.461 1.476-1.192a1.33 1.33 0 0 0-.932-1.398l-.003-.012s-1.257-.5-2.013-.662"/></g><g class="B"><path d="M945.996 663.333a14.35 14.35 0 0 1-1.181 1.261l-1.442 1.288-.784.614c-.06.044 0 .149.061.101 1.008-.742 1.956-1.587 2.818-2.488l.613-.692c.049-.06-.036-.143-.085-.084zm-4.326.563l-.049 2.198c0 .078.122.078.122 0l.048-2.198c0-.078-.121-.078-.121 0z"/></g></g><g clip-path="url(#L)"><path d="M642.379 579.476a5.27 5.27 0 0 0-.787-.35c.305-.509.41-1.19.119-1.583-.506-.676-1.374-.935-2.118-1.328-3.292-1.732-4.193-6.178-7.137-8.456-1.598-1.237-3.754-1.722-5.724-1.28s-3.721 1.798-4.647 3.601c-1.226.269-2.023 1.506-2.29 2.739-.262 1.233-.119 2.508-.186 3.77-.081 1.544-.505 3.122-1.512 4.287-.448.518-1.016.964-1.274 1.602-.295.734-.09 1.645.496 2.173.21.187.463.321.73.398a4.17 4.17 0 0 0-.73 1.347c-.085.274-.138.586.015.825.21.331.677.336 1.059.216-.015.173-.024.345-.024.518-.005 1.175.396 2.499 1.45 3.012.558.269 1.198.254 1.784.053 1.198.681 2.662.916 4.031.695 1.856-.297 3.535-1.362 4.8-2.753l1.793.437c2.691.834 5.405-1.055 7.504-2.94 1.045-.935 2.381-1.276 2.929-2.566.434-1.017.077-2.077-.548-2.897.405.034.835-.086.944-.455.139-.447-.281-.845-.677-1.065z" class="K"/><g class="E"><path d="M636.592 587.72c-.644-1.578.095-3.381 1.655-4.024.067-.029.134-.048.2-.072v-.014c.43-.178.916-.202 1.451-.101a3.11 3.11 0 0 1 .472.12c4.203 1.295 10.61 9.347 11.845 12.954 0 .005.134.245.186.374.539 1.319-.081 2.825-1.383 3.362-1.222.504-2.615-.024-3.225-1.184-4.17-5.823-9.994-9.952-9.994-9.952v-.015c-.52-.33-.95-.824-1.207-1.448zm-12.183-1.923a2.89 2.89 0 0 1 .987 3.947c-.033.057-.072.11-.11.163l.005.01c-.224.374-.577.661-1.035.887-.134.067.052.873-.091.921-3.873 1.381-13.467-1.823-16.391-3.837a3.47 3.47 0 0 1-.348-.173c-1.136-.69-1.503-2.168-.826-3.299.64-1.065 2.152-1.852 3.254-1.324 7.313 2.24 12.837 2.283 12.837 2.283l.005.014a2.87 2.87 0 0 1 1.713.408z"/><path d="M607.612 575.303l.004.01c1.131 4.618 3.407 8.268 4.146 11.294.324 1.338-1.388.633-2.676 1.094a2.48 2.48 0 0 1-3.168-1.516l-.014-.053c-1.245-3.189-2.672-10.263-2.672-10.263h.015a2.21 2.21 0 0 1 1.903-2.48c1.202-.153 2.099.705 2.462 1.914zm24.625-3.611l-.12-.225c-.257.268-6.072-.331-7.799.983.272.901.925 5.299.61 4.719-.095 0-.191.005-.286.024a1.53 1.53 0 0 0-1.193 1.794c.167.825.964 1.362 1.785 1.194.224-.043.424-.139.596-.269l1.345 4.82a3.47 3.47 0 0 0 4.303 2.389c1.846-.533 2.91-2.47 2.376-4.326l-.682-2.274c1.588-1.098 1.34-2.992.644-4.537-.687-1.544-1.579-4.292-1.579-4.292z"/></g><g fill="#fc4e60"><path d="M633.182 580.516s-.754.542-1.909.772l2.467 1.171-.558-1.943zm-1.265-3.985c.158.249.577.264.94.029s.534-.619.382-.868c-.158-.25-.578-.264-.94-.029s-.539.623-.382.868zm-4.803.998c.019.292.381.508.811.479s.763-.288.744-.58-.382-.509-.811-.48-.763.288-.744.581z" class="U"/></g><use xlink:href="#V" class="M"/><use xlink:href="#V" fill="url(#C)" class="N"/><g class="B"><path d="M635.251 583.102c-.41 1.726-1.994 2.94-3.659 3.323a5.03 5.03 0 0 1-1.474.115c-.129-.009-.129.192 0 .202 1.789.134 3.678-.729 4.709-2.216a4.09 4.09 0 0 0 .615-1.372c.033-.124-.162-.182-.191-.052zm-6.864 3.055c-1.083-.307-2.003-1.075-2.509-2.082-.057-.115-.229-.014-.172.101a4.29 4.29 0 0 0 2.629 2.177c.124.034.176-.158.052-.196zm11.33 4.403c-.406-.643-.949-1.185-1.593-1.583-.11-.067-.21.105-.101.173a4.71 4.71 0 0 1 1.522 1.51c.067.106.239.005.172-.1z"/><path d="M638.491 583.178c.172 2.024.243 4.076-.043 6.091-.019.124.177.182.191.053.291-2.034.229-4.106.052-6.149-.009-.12-.21-.12-.2.005zm-15.261 9.242c.248-.681.649-1.295 1.169-1.798.091-.091-.048-.23-.143-.144-.544.527-.959 1.175-1.221 1.889-.039.125.152.178.195.053z"/><path d="M622.381 585.039a26.46 26.46 0 0 0 1.441 5.875c.042.12.238.068.19-.052-.696-1.876-1.173-3.832-1.431-5.823-.014-.124-.214-.129-.2 0z"/></g><path d="M632.981 572.205c-1.551.772-4.046.48-5.629-.22.329.292.734.652.505.896-.281.307-2.046-.014-2.657-.321.253.24 1.135.777.93 1.05s-.978.144-1.407-.187c.639 1.175 1.045 2.144 1.36 3.343.3 1.161-.31.883-.544.744-1.508-.902-2.925-2.379-3.13-4.13-.062-.518-.062-1.06.134-1.544.415-1.017 1.555-1.501 2.6-1.827 1.321-.413 2.7-.739 4.074-.59s2.752.839 3.43 2.052" class="K"/><path d="M674.422 622.112l-14.407-10.666c-1.765-1.209-4.169-.748-5.372 1.022s-.744 4.191 1.016 5.4l15.018 10.009c.072.058 1.784.993 1.975.767a3.44 3.44 0 0 0 3.039-1.505c.734-1.084.773-2.437.219-3.53.053-.091-1.364-1.434-1.488-1.497z" class="E"/><g class="P"><path d="M666.265 615.983l-6.245-4.542c-1.765-1.208-4.169-.748-5.371 1.022s-.744 4.192 1.016 5.4l6.364 4.297a21.97 21.97 0 0 0 4.236-6.177z"/><path d="M637.956 616.233c-2.199-.259-3.768-2.259-3.515-4.466s2.246-3.788 4.441-3.534c.086.009 18.929 2.499 19.077 2.518a3.88 3.88 0 0 1 3.392 4.311 3.87 3.87 0 0 1-4.15 3.42v.005l-19.245-2.254z"/></g><path d="M664.227 614.611c-.873 1.746-1.936 3.396-3.177 4.902l-1.078 1.213c-.091.091.053.235.143.144a24.9 24.9 0 0 0 3.497-4.695l.787-1.458c.057-.12-.114-.221-.172-.106z" class="B"/><path d="M674.527 622.203l2.419 1.626 3.32-2.005-5.811 8.581-3.83-2.552 3.902-5.65z" class="M"/><g class="B"><path d="M677.981 623.263l-.095.577c-.01.043.009.096.062.106.043.009.1-.015.105-.063l.096-.576c.009-.044-.01-.097-.063-.106-.038-.01-.095.014-.105.062zm-.706.326l-.096.577c-.009.043.01.096.062.106.043.01.101-.015.105-.063l.096-.576c.01-.044-.009-.097-.062-.106-.038-.01-.096.014-.105.062z"/></g><path d="M632.504 603.988c-4.012.437-7.872.101-7.872.101l-.391 5.113c-.028 1.371.186 3.947.186 3.947.196 1.808 1.369 3.438 2.886 3.918l5.467-.005.993-.105.276-.029 1.308-.144 5.342-1.165c1.384-.792 2.185-2.643 1.99-4.446l-.668-3.895c-.377-1.88-1.565-4.781-1.565-4.781s-3.94 1.055-7.952 1.491z" class="P"/><path d="M635.011 604.728c-.033-.313-.316-.544-.626-.51s-.541.317-.507.63.315.543.626.509a.57.57 0 0 0 .507-.629z" fill="#ffd7a6"/><g class="B"><path d="M626.928 605.705c.219-.432.367-.897.415-1.381.014-.13-.186-.13-.201 0-.043.446-.181.882-.386 1.28-.062.115.11.216.172.101zm-2.438 2.029c.753-.183 1.412-.648 1.908-1.233.081-.096-.057-.24-.143-.144-.477.566-1.097 1.007-1.818 1.185-.124.028-.071.22.053.192zm.018 1.448c1.727-.398 3.125-1.818 3.755-3.453a5.07 5.07 0 0 0 .329-1.458c.009-.13-.191-.13-.201 0-.133 1.693-1.178 3.304-2.619 4.177-.41.249-.849.432-1.316.537-.129.034-.077.226.052.197zm16.989-3.491c-1.465-.039-2.91-1.099-3.363-2.509-.038-.124-.234-.072-.191.053a3.97 3.97 0 0 0 3.554 2.652c.129.005.129-.196 0-.196zm-1.508 1.017c-1.416-.629-2.709-1.761-3.172-3.29-.038-.125-.229-.072-.191.052.473 1.578 1.799 2.763 3.263 3.41.115.053.215-.12.1-.172zm1.801.403a4.27 4.27 0 0 1-1.047-.145c-.125-.033-.177.164-.053.193a4.77 4.77 0 0 0 1.1.149c.129.004.129-.197 0-.197zm-9.377-2.917l.673 5.616c.014.125.215.13.2 0l-.672-5.616c-.019-.129-.22-.129-.201 0z"/></g><path d="M651.543 634.519l-.048-17.721c.076-2.144-1.593-3.947-3.726-4.019a3.87 3.87 0 0 0-3.997 3.746l.94 18.397c-.005.096.267 2.034.562 2.053a3.43 3.43 0 0 0 3.011 1.559c1.302-.053 2.409-.825 2.953-1.919.1-.014.329-1.957.305-2.096z" class="E"/><g class="P"><path d="M651.595 624.28l-.095-7.482c.076-2.144-1.593-3.947-3.726-4.019a3.87 3.87 0 0 0-3.997 3.746l.367 8.004c-.01 0 3.592.605 7.451-.249z"/><path d="M627.977 617.278c-2.185-.355-3.669-2.422-3.311-4.619.353-2.196 2.409-3.688 4.594-3.328l18.944 3.372c2.108.345 3.539 2.34 3.196 4.46a3.87 3.87 0 0 1-4.298 3.232v.005l-19.125-3.122z"/></g><path d="M651.467 621.82a25.6 25.6 0 0 1-5.811.34l-1.603-.148c-.128-.015-.124.182 0 .201 1.942.25 3.922.245 5.868.029l1.603-.225c.124-.024.071-.216-.057-.197z" class="B"/><path d="M651.533 634.654l.138 2.925 3.578 1.492-10.318.403-.234-4.614 6.836-.206z" class="M"/><path d="M674.527 622.203l2.419 1.626 3.32-2.005-5.81 8.581-3.831-2.552 3.902-5.65z" fill="url(#D)" class="N"/><path d="M651.533 634.654l.138 2.925 3.578 1.492-10.318.403-.234-4.614 6.836-.206z" fill="url(#E)" class="N"/><g class="B"><path d="M652.727 638.088l-.516.264c-.038.019-.057.082-.034.12.029.044.077.053.12.034l.516-.264c.039-.02.058-.082.034-.121-.029-.048-.077-.057-.12-.033zm-.682-.379l-.516.264c-.039.02-.058.082-.034.121s.077.052.12.033l.516-.264c.038-.019.057-.082.034-.12-.024-.044-.077-.053-.12-.034zm-20.491-27.903l9.713 1.607 4.861.944 2.123.466c.654.182 1.302.446 1.808.911 1.083.988 1.436 2.561 1.374 3.98-.005.13.196.13.2 0 .058-1.299-.224-2.671-1.04-3.702-.853-1.079-2.199-1.391-3.482-1.659a268.52 268.52 0 0 0-9.908-1.861l-5.591-.883c-.129-.019-.186.178-.058.197zm10.198-1.199a2.82 2.82 0 0 0-.612.221c-.191.096-.388.211-.517.384-.033.044-.004.111.039.14.052.029.105.009.138-.039.105-.139.297-.245.459-.322a2.92 2.92 0 0 1 .55-.192c.12-.029.067-.221-.057-.192zm-11.28.887c-.563-.226-1.174-.297-1.775-.211-.129.019-.072.211.053.192.562-.077 1.14 0 1.664.211.124.052.177-.144.058-.192zm-.482-.68h.058.033.024c.015 0 .019 0 .024.004s.024.005.034.01c.023.005.047.014.066.024s.039.014.048.024c.019.015.043.024.062.039.005.004.01.009.015.014l.024.024c.019.019.033.038.052.058.034.043.11.038.144 0 .038-.044.033-.096 0-.145-.148-.192-.402-.278-.636-.245-.053.01-.086.077-.072.125s.067.072.124.068zm10.485-.543c-.105.043-.2.106-.272.197s-.124.192-.148.302c-.009.053.015.11.072.125.048.009.114-.015.124-.072l.014-.067c.005-.01.01-.024.01-.034.019-.033.028-.057.043-.077.005-.009.014-.019.019-.028.024-.034-.005.004.009-.015s.029-.033.048-.053c.01-.009.014-.014.024-.019l.019-.019c0 .005.014-.009.019-.014s.019-.015.029-.019l.028-.015c.005-.005.01-.005.019-.009s.024-.01 0 0c.024-.01.048-.024.062-.048s.02-.053.01-.077c-.019-.034-.076-.077-.129-.058z"/></g><g class="E"><path d="M640.566 594.329h.01c4.727.93 9.636 1.132 9.636 1.132v.048l.1.004c1.389.13 2.409 1.372 2.281 2.768s-1.365 2.422-2.753 2.292c-.019 0-.033-.005-.052-.009-3.459-.211-10.572-1.924-10.572-1.924l.005-.009c-1.183-.374-1.837-1.64-1.465-2.83s1.565-1.717 2.81-1.472zm-39.013-23.448l1.898 1.05c-4.546-3.995.177-1.131 1.551-.278.157.096.367-.009.372-.192v-.043l-.005.005c.053-1.151.339-1.045.673-.456l.043-.024c.567 1.032 1.259 3.314 1.259 3.314l-.014.015c.358.916.038 1.99-.811 2.556a2.11 2.11 0 0 1-2.934-.614c-.091-.134-1.088-1.127-1.522-1.506-3.997-3.477.153-1.002.153-1.002-4.995-4.221.61-.94.61-.94-3.372-2.379-2.609-2.561-1.273-1.885zm36.42 22.719c-.88-.192-1.329-.092-.244.846l.244-.846z"/></g><path d="M632.733 601.24l4.317.053c.396.005.72-.312.725-.71l.11-8.973c.005-.398-.31-.724-.706-.729l-4.317-.053c-.396-.005-.721.312-.725.71l-.11 8.973c-.005.398.31.724.706.729z" class="B"/><path d="M632.033 599.825l5.747.07.093-7.596-5.748-.071-.092 7.597z" fill="#d2dcfa"/><path d="M634.345 594.225c.005-.351.292-.63.641-.625a.63.63 0 1 1-.019 1.269c-.349-.005-.627-.293-.622-.644z" class="B"/><g class="K"><path d="M636.582 591.648c0-.172.144-.316.32-.312s.315.144.31.322c0 .172-.143.316-.32.311s-.314-.148-.31-.321zm-.491-.004c0-.058.048-.106.106-.106s.106.048.106.106-.048.107-.106.107-.106-.048-.106-.107z"/></g><path d="M637.838 594.483c.038.12-.019.311-.196.374-1.522.537-6.707 2.426-.758 1.386l-2.004.825c-1.364.618-1.703 1.328 2.256.187 0 0-6.063 2.316.344 1.064 0 0-4.523 1.689.677.749.568-.101 1.961-.259 2.123-.24 1.164.115 2.204-.739 2.319-1.909a2.13 2.13 0 0 0-1.465-2.24l-.005-.019s-2.104-.878-3.291-1.137" class="E"/></g><g clip-path="url(#M)" fill="#00438b"><path d="M643.634 562.833c1.233 0 2.232-.977 2.232-2.182s-.999-2.182-2.232-2.182-2.231.977-2.231 2.182.999 2.182 2.231 2.182zm5.683-4.429c-.351 0-.701-.131-.968-.393a6.69 6.69 0 0 0-4.703-1.904c-1.723 0-3.36.642-4.604 1.808a1.39 1.39 0 0 1-1.932-.038c-.523-.535-.504-1.382.039-1.89 1.755-1.647 4.061-2.551 6.497-2.551 2.507 0 4.864.954 6.639 2.69.535.523.535 1.37 0 1.889-.268.258-.618.389-.968.389zm3.419-3.406c-.374 0-.748-.15-1.016-.442-2.058-2.236-5.001-3.517-8.074-3.517-3.03 0-5.946 1.254-7.996 3.436a1.39 1.39 0 0 1-1.932.081c-.555-.5-.595-1.347-.083-1.89 2.57-2.732 6.217-4.302 10.011-4.302 3.848 0 7.531 1.605 10.105 4.402a1.32 1.32 0 0 1-.102 1.89c-.26.231-.587.342-.913.342zm3.521-3.601a1.38 1.38 0 0 1-.96-.385c-3.128-3.006-7.264-4.66-11.652-4.66-4.344 0-8.452 1.628-11.573 4.583-.543.515-1.408.5-1.932-.031a1.31 1.31 0 0 1 .032-1.889c3.628-3.44 8.417-5.338 13.473-5.338 5.108 0 9.924 1.928 13.568 5.426.539.52.547 1.366.016 1.89a1.36 1.36 0 0 1-.972.404z"/></g><g clip-path="url(#N)" class="B"><path d="M532.081 451.356c3.081 0 5.578-2.487 5.578-5.554s-2.497-5.554-5.578-5.554-5.578 2.487-5.578 5.554 2.497 5.554 5.578 5.554zm14.205-11.275a3.42 3.42 0 0 1-2.42-.999 16.57 16.57 0 0 0-11.756-4.848c-4.309 0-8.402 1.635-11.51 4.603a3.43 3.43 0 0 1-4.831-.098c-1.308-1.361-1.259-3.516.099-4.809 4.387-4.192 10.152-6.494 16.242-6.494 6.266 0 12.159 2.429 16.596 6.847 1.338 1.332 1.338 3.487 0 4.809-.669.656-1.545.989-2.42.989zm8.547-8.668a3.41 3.41 0 0 1-2.538-1.126c-5.145-5.691-12.504-8.953-20.187-8.953-7.575 0-14.865 3.193-19.99 8.747-1.279 1.381-3.443 1.479-4.83.206s-1.486-3.428-.207-4.809c6.424-6.955 15.544-10.951 25.027-10.951 9.621 0 18.829 4.084 25.263 11.205a3.4 3.4 0 0 1-.256 4.81c-.649.587-1.466.871-2.282.871zm8.802-9.168c-.866 0-1.732-.323-2.401-.979-7.821-7.65-18.16-11.862-29.129-11.862a41.46 41.46 0 0 0-28.932 11.666 3.42 3.42 0 0 1-4.831-.079c-1.318-1.351-1.279-3.506.079-4.809 9.07-8.757 21.043-13.586 33.684-13.586a48.25 48.25 0 0 1 33.92 13.811c1.348 1.323 1.368 3.477.039 4.81a3.36 3.36 0 0 1-2.429 1.028z"/></g><g clip-path="url(#O)" class="B"><path d="M829.646 496.506c1.41 0 2.552-1.182 2.552-2.64s-1.142-2.64-2.552-2.64-2.552 1.182-2.552 2.64 1.143 2.64 2.552 2.64zm6.499-5.359c-.401 0-.801-.159-1.107-.475-1.436-1.486-3.349-2.305-5.379-2.305a7.45 7.45 0 0 0-5.266 2.188c-.625.619-1.615.596-2.209-.046s-.577-1.672.045-2.286c2.007-1.993 4.644-3.087 7.43-3.087 2.867 0 5.563 1.155 7.593 3.254.612.633.612 1.658 0 2.286a1.55 1.55 0 0 1-1.107.471zm3.91-4.12c-.427 0-.855-.182-1.161-.536-2.354-2.705-5.72-4.255-9.235-4.255-3.466 0-6.801 1.517-9.146 4.157-.585.657-1.575.703-2.21.098a1.66 1.66 0 0 1-.094-2.286c2.939-3.306 7.111-5.205 11.45-5.205 4.401 0 8.614 1.941 11.558 5.326a1.66 1.66 0 0 1-.117 2.286c-.297.28-.671.415-1.045.415zm4.024-4.358a1.53 1.53 0 0 1-1.098-.466c-3.578-3.636-8.308-5.638-13.327-5.638-4.969 0-9.667 1.969-13.236 5.545-.622.624-1.612.605-2.21-.037a1.66 1.66 0 0 1 .036-2.286c4.149-4.163 9.627-6.458 15.41-6.458 5.842 0 11.351 2.333 15.519 6.565.616.628.625 1.653.018 2.286a1.51 1.51 0 0 1-1.112.489z"/></g><g clip-path="url(#P)" class="B"><path d="M1258.52 450.145c.9 0 1.63-.739 1.63-1.65s-.73-1.65-1.63-1.65c-.89 0-1.62.739-1.62 1.65s.73 1.65 1.62 1.65zm4.14-3.35a.96.96 0 0 1-.7-.297c-.92-.928-2.14-1.44-3.43-1.44-1.25 0-2.44.486-3.35 1.368-.4.387-1.03.372-1.4-.03a1.02 1.02 0 0 1 .02-1.428 6.75 6.75 0 0 1 4.73-1.93c1.83 0 3.54.722 4.83 2.034a1.02 1.02 0 0 1 0 1.429c-.19.195-.45.294-.7.294zm2.49-2.575a.98.98 0 0 1-.74-.334c-1.5-1.691-3.64-2.66-5.88-2.66-2.2 0-4.33.949-5.82 2.599-.37.41-1 .439-1.4.061a1.01 1.01 0 0 1-.06-1.429c1.87-2.066 4.52-3.253 7.28-3.253a9.86 9.86 0 0 1 7.36 3.329 1.03 1.03 0 0 1-.08 1.428.96.96 0 0 1-.66.259zm2.56-2.723c-.26 0-.51-.096-.7-.291a11.94 11.94 0 0 0-8.48-3.524c-3.16 0-6.15 1.231-8.43 3.465-.39.39-1.02.379-1.4-.023a1.02 1.02 0 0 1 .02-1.429c2.64-2.601 6.13-4.036 9.81-4.036 3.72 0 7.22 1.458 9.87 4.103a1.01 1.01 0 0 1 .01 1.429.96.96 0 0 1-.7.306z"/></g><g clip-path="url(#Q)" class="B"><path d="M924.077 649.923c.77 0 1.394-.711 1.394-1.587s-.624-1.587-1.394-1.587-1.395.71-1.395 1.587.624 1.587 1.395 1.587zm3.55-3.222c-.218 0-.437-.095-.605-.286-.784-.892-1.829-1.385-2.939-1.385-1.077 0-2.1.468-2.877 1.316a.78.78 0 0 1-1.208-.028c-.327-.389-.314-1.005.025-1.375 1.097-1.197 2.538-1.855 4.06-1.855 1.567 0 3.04.694 4.149 1.956.335.381.335.996 0 1.374-.167.188-.386.283-.605.283zm2.139-2.477a.81.81 0 0 1-.635-.321c-1.286-1.626-3.126-2.558-5.047-2.558-1.893 0-3.716.912-4.997 2.499-.32.394-.861.422-1.208.059a1.07 1.07 0 0 1-.051-1.374c1.606-1.987 3.885-3.129 6.256-3.129 2.406 0 4.708 1.167 6.316 3.201a1.07 1.07 0 0 1-.064 1.374c-.162.168-.366.249-.57.249zm2.2-2.619a.8.8 0 0 1-.601-.28c-1.955-2.186-4.54-3.389-7.282-3.389-2.715 0-5.283 1.184-7.233 3.333a.78.78 0 0 1-1.207-.022 1.07 1.07 0 0 1 .019-1.374c2.268-2.502 5.261-3.882 8.421-3.882 3.192 0 6.203 1.402 8.48 3.946a1.07 1.07 0 0 1 .01 1.374c-.165.196-.386.294-.607.294z"/></g><g clip-path="url(#R)" class="B"><path d="M1139.19 581.995c.69 0 1.25-.622 1.25-1.388s-.56-1.389-1.25-1.389c-.7 0-1.26.622-1.26 1.389s.56 1.388 1.26 1.388zm3.19-2.819c-.2 0-.39-.083-.54-.25-.71-.781-1.65-1.212-2.65-1.212-.97 0-1.89.409-2.59 1.151a.71.71 0 0 1-1.08-.024c-.3-.341-.29-.879.02-1.203.99-1.048 2.28-1.623 3.65-1.623 1.41 0 2.74.607 3.74 1.712.3.333.3.871 0 1.202-.15.164-.35.247-.55.247zm1.93-2.167a.73.73 0 0 1-.57-.281c-1.16-1.423-2.82-2.239-4.55-2.239-1.7 0-3.34.799-4.49 2.187-.29.345-.78.37-1.09.052a.92.92 0 0 1-.05-1.203c1.45-1.738 3.5-2.737 5.63-2.737 2.17 0 4.24 1.021 5.69 2.801.28.35.26.886-.06 1.202-.15.147-.33.218-.51.218zm1.98-2.292a.72.72 0 0 1-.54-.245c-1.76-1.912-4.09-2.965-6.56-2.965-2.44 0-4.75 1.036-6.51 2.916-.3.328-.79.319-1.08-.019a.92.92 0 0 1 .01-1.203c2.04-2.189 4.74-3.396 7.58-3.396 2.88 0 5.58 1.227 7.63 3.453.31.33.31.869.01 1.202a.71.71 0 0 1-.54.257z"/></g><g clip-path="url(#S)"><use xlink:href="#W" class="M"/><g opacity=".76"><use xlink:href="#W" opacity=".76" fill="url(#F)"/></g><use xlink:href="#X" class="M"/><g class="N"><use xlink:href="#X" fill="url(#G)" class="N"/></g><g class="E"><path d="M1153.03 579.951a.74.74 0 0 0 .29-.031c.34-.117.52-.478.4-.805s-.5-.499-.85-.381c-.04.014-.08.034-.11.053 0 .036-.01.038-.03.016l-.12.237c-.06.098-.23.329-.37-.146-.16-.493-.22-.923-.24-1.476-.09.207-.35.419-.49.367s.07-.432.11-.57c-.16.241-.75.732-.92.683-.14-.04-.07-.253-.01-.426-.39.526-1.13 1.092-1.83 1.244l.3 1.557c.08.696.41 1.418 1.26 1.467l.25.951c.22.769 1.05 1.229 1.86 1.024s1.29-.996 1.08-1.766l-.58-1.998zm1.09 3.931c-.18-.769.33-1.528 1.13-1.696l.1-.016.01-.006c.22-.045.46-.017.7.071a1.56 1.56 0 0 1 .22.091c1.91.923 4.33 5.091 4.62 6.829 0 .002.04.122.06.183.15.643-.27 1.279-.95 1.419-.63.132-1.25-.219-1.45-.795-1.52-2.979-3.98-5.318-3.98-5.318v-.006a1.44 1.44 0 0 1-.46-.756zm-4 .466c.24-.679-.14-1.412-.85-1.637-.03-.01-.06-.016-.09-.024v-.006c-.19-.061-.41-.059-.64-.002-.08.016-.14.036-.21.063-1.83.659-4.43 4.202-4.87 5.746 0 .002-.06.107-.08.162-.2.568.12 1.18.71 1.369.56.178 1.16-.083 1.4-.586 1.68-2.55 4.14-4.44 4.14-4.44v-.006c.22-.154.4-.371.49-.639z"/><path d="M1149.1 592.435c0-.002-.65-.692-.65-.694v-.002c-1.57-1.525-2.94-3.306-2.95-3.318-.41-.483-1.15-.56-1.66-.175s-.59 1.091-.18 1.572c0 .006.01.012.01.018.97 1.231 3.46 3.45 3.46 3.45v-.004l.65.69c.45.347 1.11.284 1.47-.142s.24-.968-.15-1.395z"/></g><g class="W"><path d="M1150.41 581.737s.41.029.9-.135l-.67.945-.23-.81zm-.41-1.683c-.01.121-.16.218-.35.214s-.34-.105-.34-.226.16-.217.35-.213.34.105.34.225zm2.15-.704c.05.109-.03.261-.2.344s-.35.061-.41-.046.03-.261.2-.344c.16-.083.35-.063.41.046z" class="U"/></g><path d="M1148.66 585.727s-.48-1.764-.61-2.99c0 0 1.21-.421 2.47-.559 0 0 .23.728 1.57.649 1.35-.102 1.53-.828 1.53-.828 1.27-.034 2.46.195 2.46.195.06 1.231-.15 3.042-.15 3.042.87 1.594-.05 2.404-.05 2.404l.39 4.401-3.4.702v.008l-.03-.002-.03.006v-.008l-3.47-.237-.28-4.41s-1.03-.677-.4-2.373z" class="P"/><g class="B"><path d="M1154.12 582.069c-.21.708-.93 1.188-1.66 1.318a2.37 2.37 0 0 1-.64.024c-.06-.006-.06.077 0 .083.78.082 1.62-.247 2.09-.845a1.69 1.69 0 0 0 .29-.558c.02-.051-.07-.073-.08-.022zm-3.05 1.163c-.47-.145-.86-.477-1.07-.902-.02-.049-.1-.006-.07.042a1.86 1.86 0 0 0 1.12.939c.05.016.07-.064.02-.079zm4.88 1.984a2.1 2.1 0 0 0-.67-.679c-.05-.029-.09.042-.05.072.27.166.49.389.65.648.03.046.1.004.07-.041z"/><path d="M1155.53 582.153c.05.838.05 1.686-.11 2.515-.01.051.07.075.08.021.16-.836.16-1.69.12-2.536 0-.054-.09-.054-.09 0zm-6.81 3.585c.11-.278.3-.526.54-.727.04-.036-.02-.095-.07-.059a2.2 2.2 0 0 0-.56.763c-.02.051.06.073.09.023z"/><path d="M1148.46 582.679c.08.832.26 1.653.54 2.446.02.051.1.029.08-.022a10.62 10.62 0 0 1-.53-2.424c-.01-.053-.09-.053-.09 0zm4.7-2.945c-.06.073-.06.176-.04.263a.43.43 0 0 0 .14.228c.06.046.13.077.21.056s.12-.095.14-.168a.42.42 0 0 0-.07-.308c-.03-.045-.11-.004-.07.042a.4.4 0 0 1 .06.213c0 .049-.02.11-.07.136-.04.021-.09.004-.13-.024-.06-.039-.09-.101-.12-.162-.02-.075-.02-.165.03-.232.01-.018 0-.048-.02-.058s-.04-.004-.06.014z"/></g><use xlink:href="#Y" class="E"/><use xlink:href="#Y" class="U W"/><g class="K"><path d="M1143.44 600.484l-1.84-2.669c-.49-.752-.24-1.738.55-2.2.8-.463 1.83-.227 2.32.525l1.73 2.712s-1.16 1.036-2.76 1.632z"/><path d="M1151.56 596.754c.94-.202 1.53-1.087 1.32-1.979s-1.14-1.454-2.08-1.254l-8.15 1.854c-.91.193-1.48 1.049-1.28 1.911.2.842 1.07 1.377 1.95 1.219v.002l8.24-1.753z"/></g><path d="M1142.93 599.688a11.27 11.27 0 0 0 2.2-1.23l.55-.423c.04-.035-.02-.092-.06-.059-.64.529-1.35.975-2.1 1.347l-.64.292c-.05.024 0 .095.05.073z" class="B"/><path d="M1145.96 604.016l.66 1.032-.94 1.333 3.84-2.237-1.03-1.629-2.53 1.501z" class="V"/><g class="B"><path d="M1146.36 605.536l.25-.028c.02-.002.04-.016.04-.036s-.02-.038-.04-.036l-.25.028c-.02.002-.04.016-.04.036s.02.04.04.036zm.16-.285l.25-.027c.02-.002.04-.016.04-.036s-.02-.038-.04-.036l-.25.028c-.02.002-.04.016-.04.036s.01.037.04.035z"/></g><path d="M1152.8 591.493c1.76-.119 3.39-.539 3.39-.539l.56 2.042c.12.554.22 1.611.22 1.611.06.746-.32 1.493-.94 1.799l-2.34.401-.44.029-.12.008-.57.04-2.38-.079c-.65-.219-1.14-.91-1.2-1.653l-.01-1.626c.02-.789.3-2.049.3-2.049s1.78.136 3.53.016z" class="K"/><path d="M1151.99 591.962c-.01-.13.09-.243.23-.252.13-.01.25.088.26.217s-.09.242-.23.252-.26-.087-.26-.217z" fill="#e0e8ed"/><g class="B"><path d="M1155.4 591.732c-.12-.15-.22-.318-.27-.501-.02-.052-.1-.03-.08.021a1.49 1.49 0 0 0 .27.521c.02.018.04.028.07.016.01-.012.02-.04.01-.057zm1.13.606a1.6 1.6 0 0 1-.86-.34c-.04-.034-.1.025-.06.059.26.206.58.346.92.366.06.002.06-.081 0-.085zm.14.591c-.74-.034-1.45-.489-1.83-1.083-.11-.168-.2-.349-.25-.54-.02-.052-.1-.03-.08.021.19.71.81 1.302 1.53 1.559a2.17 2.17 0 0 0 .63.126c.06.002.06-.081 0-.083zm-7.57-.002c.66-.13 1.22-.694 1.31-1.327.01-.052-.07-.075-.08-.022-.09.61-.62 1.146-1.25 1.27-.06.01-.04.089.02.079zm.76.285c.58-.375 1.06-.951 1.14-1.629.01-.054-.08-.054-.09 0-.08.647-.54 1.201-1.1 1.558-.04.029 0 .1.05.071zm-.78.309c.16-.028.31-.077.46-.142.02-.01.03-.04.02-.057s-.04-.024-.06-.016a2.05 2.05 0 0 1-.44.134c-.02.004-.04.032-.03.051 0 .026.03.036.05.03zm3.69-1.943l.15 2.323c0 .054.08.054.08 0l-.14-2.323c0-.054-.09-.054-.09 0z"/></g><path d="M1142.63 603.352l2.75-6.809c.3-.837 1.25-1.285 2.13-1 .89.284 1.36 1.191 1.06 2.027l-3.21 6.94c-.02.037-.42.743-.55.708a1.56 1.56 0 0 1-1.46.16c-.53-.211-.86-.671-.91-1.172-.04-.022.16-.803.19-.854z" class="E"/><g class="K"><path d="M1144.19 599.407l1.19-2.864c.3-.837 1.26-1.285 2.14-1s1.35 1.191 1.05 2.027l-1.38 3.026a9.8 9.8 0 0 1-3-1.189z"/><path d="M1155.65 596.57c.93-.243 1.48-1.154 1.22-2.036-.25-.881-1.21-1.402-2.14-1.159l-8.05 2.215c-.9.232-1.43 1.112-1.18 1.964.24.833 1.13 1.33 2.01 1.133v.002l8.14-2.119z"/></g><path d="M1144.57 598.549c.73.408 1.51.743 2.32.988l.69.183c.06.012.08-.067.03-.079-.83-.185-1.62-.473-2.37-.836l-.63-.326c-.04-.029-.09.042-.04.07z" class="B"/><path d="M1142.62 603.407l-.51 1.106-1.68.048 4.14 1.669.8-1.74-2.75-1.083z" class="V"/><g class="B"><path d="M1141.55 604.602l.17.18c.02.014.04.014.06 0 .01-.016.01-.036 0-.052l-.17-.18c-.02-.014-.04-.014-.06 0-.01.016-.01.038 0 .052zm.34-.046a2.81 2.81 0 0 0 .17.18c.01.014.04.014.05 0 .02-.016.02-.036 0-.052a2.81 2.81 0 0 0-.17-.18c-.01-.014-.04-.014-.05 0-.02.016-.02.036 0 .052z"/></g><path d="M1149.19 594.084c.14.006.4.055.5.148l-.5-.148z" fill="#9b8da6"/><g class="B"><path d="M1153.73 593.594l-3.52.915-1.76.499-1.57.465c-.39.111-.8.215-1.15.425-.13.077-.24.169-.32.29l-.17.282c-.29.562-.49 1.167-.7 1.763l-.4 1.261c0 .007-.01.013-.01.021-.01.051.07.073.08.022l.33-1.042.68-1.791c.1-.205.2-.442.37-.599.14-.127.31-.211.48-.282.2-.081.4-.144.6-.204l3.17-.921 3.47-.917.43-.106c.06-.016.04-.095-.01-.081z"/><path d="M1154.14 593.647c.21-.125.45-.198.7-.208.05-.002.05-.085 0-.083-.27.01-.52.085-.75.22-.04.027 0 .099.05.071zm.26-.533c-.11-.004-.21.05-.27.136-.01.018 0 .046.02.058s.05.004.06-.016l.01-.02.03-.022c.02-.02.03-.026.04-.03s.01-.004.02-.006.02-.008.03-.012.01-.002.02-.002c.02-.002.03-.004.04-.002.02 0 .04-.02.04-.042s-.02-.042-.04-.042zm-4.7.782c.01.002.02.004.03.008s.01.006.02.008.02.01.02.014c.01.002.01.004.02.008.01.011.02.017.02.025.01.012.02.018.02.012 0 .01.01.018.01.026.01.018.01.024.01.014.01.018.01.028.02.034s.03.008.04.004c.02-.006.04-.03.03-.052-.04-.089-.12-.161-.22-.181-.02-.004-.04.006-.05.03s0 .046.03.05zm6.27-1.015c.15.628.42 1.387-.04 1.957-.14.174-.35.258-.57.343l-1.01.347-1.33.389-1.49.404-1.47.387-1.26.339-.9.265-.27.096c-.18.081-.32.229-.43.389-.16.248-.27.534-.37.813l-.36 1.092-.21.584c-.02.05.06.071.08.022l.4-1.17.36-.976c.1-.225.24-.468.45-.614.09-.059.18-.088.27-.122l.83-.25 1.23-.332 1.44-.381 1.5-.404 1.37-.394 1.08-.357c.2-.079.44-.158.61-.294.21-.164.33-.44.37-.687.06-.327 0-.663-.08-.982-.03-.162-.08-.322-.12-.483-.01-.056-.09-.034-.08.019z"/></g><path d="M1147.82 593.92c-.2-.177-.71-.576-.78-.609-.49-.243-.68-.815-.42-1.282.22-.407.71-.596 1.15-.48l.01-.005s2.98.556 1.4.753c-.08.01-.12.109-.07.176.46.574 2.03 2.55-.06.704l.59.799c.38.564.33.915-.95-.484 0 0 1.81 2.352-.4.314-.01 0 1.35 1.74-.47.114z" class="E"/><path d="M1153.76 593.595l-6.85.341c-.2-.035-1.89.669-1.89.669l.13.469 8.91-1.019-.3-.46z" fill="#92add9"/><path d="M1145.04 593.027c-.05.07-.06.162-.04.242.01.039.08.022.07-.016-.02-.066-.01-.138.03-.194.01-.014 0-.034-.02-.042-.01-.01-.03-.004-.04.01z" fill="#5c3146"/><path d="M1147.89 594.347l5.86-.75.31.458-4.8.607-1.37-.315z" fill="#bad4fc"/><path d="M1140.09 590.49l6.8-.947 2.43 5.119-6.41.631-2.82-4.803z" fill="#f2f6fc"/><path d="M1149.05 594.167l.27.495-6.44.643-.19-.44 6.36-.698z" fill="#d6e5fc"/><path d="M1144.14 592.902c-.14-.174-.12-.41.04-.524s.41-.067.55.107.12.409-.04.523-.41.068-.55-.106z" fill="#b3c0ff"/><g class="E"><path d="M1154.92 591.062l.01-.004c2.1-1 4.1-2.317 4.11-2.325.58-.346 1.34-.184 1.7.365.37.546.2 1.27-.38 1.615-.01.004-.02.008-.02.012-1.41.903-4.66 2.296-4.66 2.296v-.006c-.57.197-1.2-.079-1.41-.617s.11-1.042.65-1.336z"/><path d="M1152.04 592.433s-1.13.345-1.38.241c-.2-.085.42-.426 1.31-.771.66-.261 3.09-.9 3.09-.902.53-.282 1.19-.108 1.49.387.29.497.11 1.128-.41 1.41-.05.028-.1.049-.16.069l.01.008s-2.05.909-2.85.403c0 0-.47.595-.93.909-.48.323.14-.817.14-.817s-.8.902-1.03.758.8-1.137.8-1.137l-.73.598c-.53.418-1.19.438.65-1.156z"/></g></g></g><defs><linearGradient id="B" x1="935.492" y1="650.074" x2="935.492" y2="678.858" xlink:href="#Z"><stop stop-color="#0e0e8c"/><stop offset="1" stop-color="#6349e5" stop-opacity="0"/></linearGradient><linearGradient id="C" x1="627.949" y1="572.126" x2="634.587" y2="606.638" xlink:href="#Z"><stop stop-color="#0e0e8c"/><stop offset="1" stop-color="#6349e5" stop-opacity="0"/></linearGradient><linearGradient id="D" x1="669.224" y1="623.707" x2="681.297" y2="627.239" xlink:href="#Z"><stop stop-color="#0e0e8c"/><stop offset="1" stop-color="#6349e5" stop-opacity="0"/></linearGradient><linearGradient id="E" x1="648.607" y1="628.345" x2="650.756" y2="644.02" xlink:href="#Z"><stop stop-color="#0e0e8c"/><stop offset="1" stop-color="#6349e5" stop-opacity="0"/></linearGradient><linearGradient id="F" x1="1154.67" y1="569.783" x2="1154.67" y2="588.917" xlink:href="#Z"><stop stop-color="#0e0e8c"/><stop offset="1" stop-color="#6349e5" stop-opacity="0"/></linearGradient><linearGradient id="G" x1="1151.15" y1="572.169" x2="1151.31" y2="581.325" xlink:href="#Z"><stop stop-color="#0e0e8c"/><stop offset="1" stop-color="#6349e5" stop-opacity="0"/></linearGradient><clipPath id="H"><path transform="translate(481.707 442.657)" d="M0 0h101.021v292.614H0z" class="B"/></clipPath><clipPath id="I"><path transform="translate(805.078 493.613)" d="M0 0h49.26v141.986H0z" class="B"/></clipPath><clipPath id="J"><path transform="translate(1242.63 450.148)" d="M0 0h31.874v92.726H0z" class="B"/></clipPath><clipPath id="K"><path transform="translate(922.369 646.442)" d="M0 0h26.126v62.703H0z" class="B"/></clipPath><clipPath id="L"><path transform="translate(600.145 566.32)" d="M0 0h80.12v73.153H0z" class="B"/></clipPath><clipPath id="M"><path transform="translate(629.755 543.677)" d="M0 0h27.868v19.159H0z" class="B"/></clipPath><clipPath id="N"><path transform="translate(497.383 402.596)" d="M0 0h69.67v48.769H0z" class="B"/></clipPath><clipPath id="O"><path transform="translate(813.771 473.329)" d="M0 0h31.874v23.181H0z" class="B"/></clipPath><clipPath id="P"><path transform="translate(1248.42 435.659)" d="M0 0h20.284v14.488H0z" class="B"/></clipPath><clipPath id="Q"><path transform="translate(915.402 635.991)" d="M0 0h17.417v13.934H0z" class="B"/></clipPath><clipPath id="R"><path transform="translate(1131.38 569.805)" d="M0 0h15.676v12.192H0z" class="B"/></clipPath><clipPath id="S"><path transform="translate(1140.09 573.288)" d="M0 0h20.901v33.093H0z" class="B"/></clipPath><path id="T" d="M685.474 621.515l4.982 7.037 4.842 7.141 4.702 7.228 4.564 7.316-4.982-7.037-4.842-7.141-4.702-7.228-4.564-7.316z"/><path id="U" d="M942.757 659.662c-.103-.063-.21-.117-.322-.162-.067-.03-.131-.051-.197-.074-1.361-.749-3.198-1.114-4.646-1.288 0 0-.671 1.207-2.228 1.21h-.003c-.009 0-.022 0-.031.003h-.03v.003h-.003c-1.558.003-2.232-1.201-2.232-1.201-1.272.156-2.845.464-4.129 1.048-.121.03-.246.069-.37.123a2.2 2.2 0 0 0-.322.161c-1.297.737-2.693 2.558-3.856 4.579 0 0 1.06 1.734 3.422 3.237l1.211-1.77-.07 10.72s1.855.689 6.382.692h.034.033c4.527-.018 6.382-.716 6.382-.716l-.112-10.914 1.5 2.17c2.368-1.497 3.431-3.227 3.431-3.227-1.16-2.031-2.551-3.854-3.844-4.594z"/><path id="V" d="M623.091 592.401s-1.245-4.225-1.631-7.184c0 0 2.667-1.089 5.529-1.526 0 0 .639 1.713 3.707 1.41 3.062-.359 3.134-2.153 3.134-2.153 2.891-.182 5.915.288 5.915.288.253 2.973-.067 7.371-.067 7.371 2.123 3.784.096 5.818.096 5.818l1.269 10.613-7.705 1.981v.019l-.076-.005-.072.02v-.02l-7.947-.283-1.012-10.642s-2.413-1.554-1.14-5.707z"/><path id="W" d="M1150.13 576.412c-.23-1.232.65-2.524 1.89-2.952s2.71-.03 3.63.867l.69.736c.39.373.88.655 1.41.813.32.097.66.15.95.298.3.148.56.424.55.743-.01.563-.79.811-1.37.703.23.39.48.85.31 1.27-.18.43-.74.625-1.22.558s-.9-.333-1.3-.592c.04.336.08.685-.05.999s-.47.575-.82.501c-.17-.036-.3-.139-.43-.237-.62-.472-1.22-.969-1.92-1.324-.69-.355-1.51-.558-2.28-.39"/><path id="X" d="M1149.96 581.044c-.85-.481-1.75-1.156-1.91-2.515-.09-.714.41-1.517.84-1.907.55-.498 1.22-.898 1.96-1.046.75-.148 1.57-.024 2.17.422.68.511 1.14 1.558 1.4 2.348.26.796.05 2.221-1.58 2.804-.43.156-1.44-.118-1.88-.347-.52-.274-.45.527-1.05.486"/><path id="Y" d="M1145.93 603.973l-4.33-6.158c-.49-.752-.24-1.738.55-2.2.8-.463 1.83-.227 2.32.525l4.03 6.399c.02.031.39.757.29.832 0 .484-.25.955-.71 1.225-.49.282-1.07.272-1.54.024-.04.016-.59-.594-.61-.647z"/><linearGradient id="Z" gradientUnits="userSpaceOnUse"/></defs></svg>