<svg xmlns="http://www.w3.org/2000/svg" width="341" height="228" fill="none" xmlns:v="https://vecta.io/nano"><g filter="url(#A)"><rect x="10" y="10" width="321" height="208" rx="7" fill="#fff"/></g><path d="M85.5148 162.8c.136.256.26.524.372.804l.348.828.348-.852.384-.804 5.136-9.612c.064-.12.128-.216.192-.288.072-.072.148-.124.228-.156.088-.032.184-.052.288-.06l.372-.012h2.436V170h-2.844v-11.208l.012-.684.06-.756-5.244 9.84c-.12.224-.276.4-.468.528-.192.12-.416.18-.672.18h-.444c-.256 0-.48-.06-.672-.18-.192-.128-.348-.304-.468-.528l-5.316-9.876.06.78.024.696V170h-2.844v-17.352h2.436l.372.012c.104.008.196.028.276.06.088.032.168.084.24.156s.14.168.204.288l5.184 9.636zm18.5202-5.304c.776 0 1.488.124 2.136.372.656.248 1.22.612 1.692 1.092.472.472.84 1.056 1.104 1.752.264.688.396 1.476.396 2.364 0 .224-.012.412-.036.564-.016.144-.052.26-.108.348-.048.08-.116.14-.204.18-.088.032-.2.048-.336.048h-7.608c.088 1.264.428 2.192 1.02 2.784s1.376.888 2.352.888c.48 0 .892-.056 1.236-.168.352-.112.656-.236.912-.372l.684-.372c.2-.112.392-.168.576-.168.12 0 .224.024.312.072s.164.116.228.204l.864 1.08c-.328.384-.696.708-1.104.972-.408.256-.836.464-1.284.624-.44.152-.892.26-1.356.324-.456.064-.9.096-1.332.096-.856 0-1.652-.14-2.388-.42-.736-.288-1.376-.708-1.9197-1.26-.544-.56-.972-1.248-1.284-2.064-.312-.824-.468-1.776-.468-2.856 0-.84.136-1.628.408-2.364.272-.744.66-1.388 1.164-1.932.5117-.552 1.1317-.988 1.8597-1.308.736-.32 1.564-.48 2.484-.48zm.06 2.124c-.864 0-1.54.244-2.028.732s-.8 1.18-.936 2.076h5.568c0-.384-.052-.744-.156-1.08-.104-.344-.264-.644-.48-.9s-.488-.456-.816-.6c-.328-.152-.712-.228-1.152-.228zm7.673 10.38v-12.312h1.812c.384 0 .636.18.756.54l.192.912c.216-.24.44-.46.672-.66.24-.2.492-.372.756-.516.272-.144.56-.256.864-.336.312-.088.652-.132 1.02-.132.776 0 1.412.212 1.908.636.504.416.88.972 1.128 1.668.192-.408.432-.756.72-1.044.288-.296.604-.536.948-.72s.708-.32 1.092-.408c.392-.088.784-.132 1.176-.132.68 0 1.284.104 1.812.312s.972.512 1.332.912.632.888.816 1.464c.192.576.288 1.236.288 1.98V170h-2.964v-7.836c0-.784-.172-1.372-.516-1.764-.344-.4-.848-.6-1.512-.6-.304 0-.588.052-.852.156-.256.104-.484.256-.684.456-.192.192-.344.436-.456.732s-.168.636-.168 1.02V170h-2.976v-7.836c0-.824-.168-1.424-.504-1.8-.328-.376-.816-.564-1.464-.564-.424 0-.824.108-1.2.324-.368.208-.712.496-1.032.864V170h-2.964zm22.915-12.312v7.824c0 .752.172 1.336.516 1.752.352.408.876.612 1.572.612.512 0 .992-.112 1.44-.336.448-.232.872-.548 1.272-.948v-8.904h2.964V170h-1.812c-.384 0-.636-.18-.756-.54l-.204-.984c-.256.256-.52.492-.792.708-.272.208-.564.388-.876.54-.304.144-.636.256-.996.336-.352.088-.732.132-1.14.132-.672 0-1.268-.112-1.788-.336-.512-.232-.944-.556-1.296-.972s-.62-.908-.804-1.476c-.176-.576-.264-1.208-.264-1.896v-7.824h2.964zM155.259 170h-1.332c-.28 0-.5-.04-.66-.12-.16-.088-.28-.26-.36-.516l-.264-.876c-.312.28-.62.528-.924.744-.296.208-.604.384-.924.528s-.66.252-1.02.324-.76.108-1.2.108c-.52 0-1-.068-1.44-.204-.44-.144-.82-.356-1.14-.636-.312-.28-.556-.628-.732-1.044s-.264-.9-.264-1.452c0-.464.12-.92.36-1.368.248-.456.656-.864 1.224-1.224.568-.368 1.324-.672 2.268-.912s2.116-.376 3.516-.408v-.72c0-.824-.176-1.432-.528-1.824-.344-.4-.848-.6-1.512-.6-.48 0-.88.056-1.2.168s-.6.24-.84.384l-.648.372c-.2.112-.42.168-.66.168-.2 0-.372-.052-.516-.156s-.26-.232-.348-.384l-.54-.948c1.416-1.296 3.124-1.944 5.124-1.944.72 0 1.36.12 1.92.36.568.232 1.048.56 1.44.984.392.416.688.916.888 1.5.208.584.312 1.224.312 1.92V170zm-5.76-1.848c.304 0 .584-.028.84-.084s.496-.14.72-.252c.232-.112.452-.248.66-.408.216-.168.432-.364.648-.588v-2.076c-.864.04-1.588.116-2.172.228-.576.104-1.04.24-1.392.408s-.604.364-.756.588c-.144.224-.216.468-.216.732 0 .52.152.892.456 1.116.312.224.716.336 1.212.336zm12.719 2.04c-1.064 0-1.884-.3-2.46-.9-.576-.608-.864-1.444-.864-2.508v-6.876h-1.248c-.16 0-.3-.052-.42-.156-.112-.104-.168-.26-.168-.468v-1.176l1.98-.324.624-3.36c.032-.16.104-.284.216-.372.12-.088.268-.132.444-.132h1.536v3.876h3.24v2.112h-3.24v6.672c0 .384.096.684.288.9s.448.324.768.324c.184 0 .336-.02.456-.06.128-.048.236-.096.324-.144l.252-.132c.072-.048.144-.072.216-.072.088 0 .16.024.216.072.056.04.116.104.18.192l.888 1.44c-.432.36-.928.632-1.488.816s-1.14.276-1.74.276zM175.6 159.92h.756c.304 0 .556-.04.756-.12.2-.088.372-.224.516-.408l4.788-6.06c.2-.256.408-.432.624-.528.224-.104.504-.156.84-.156h2.784l-5.844 7.212c-.184.224-.36.412-.528.564s-.348.276-.54.372c.264.096.5.232.708.408.216.176.424.4.624.672l6.024 8.124h-2.856c-.384 0-.672-.052-.864-.156-.184-.112-.34-.272-.468-.48l-4.908-6.408c-.16-.208-.34-.356-.54-.444-.2-.096-.484-.144-.852-.144h-1.02V170h-3.228v-17.364h3.228v7.284zm17.994-2.424c.92 0 1.752.148 2.496.444.752.296 1.392.716 1.92 1.26s.936 1.208 1.224 1.992.432 1.66.432 2.628c0 .976-.144 1.856-.432 2.64s-.696 1.452-1.224 2.004-1.168.976-1.92 1.272c-.744.296-1.576.444-2.496.444s-1.756-.148-2.508-.444-1.396-.72-1.932-1.272c-.528-.552-.94-1.22-1.236-2.004-.288-.784-.432-1.664-.432-2.64 0-.968.144-1.844.432-2.628.296-.784.708-1.448 1.236-1.992.536-.544 1.18-.964 1.932-1.26s1.588-.444 2.508-.444zm0 10.404c1.024 0 1.78-.344 2.268-1.032.496-.688.744-1.696.744-3.024s-.248-2.34-.744-3.036c-.488-.696-1.244-1.044-2.268-1.044-1.04 0-1.808.352-2.304 1.056-.496.696-.744 1.704-.744 3.024s.248 2.328.744 3.024c.496.688 1.264 1.032 2.304 1.032zm8.385 2.1v-12.312h1.812c.384 0 .636.18.756.54l.204.972c.248-.256.508-.488.78-.696.28-.208.572-.388.876-.54.312-.152.644-.268.996-.348s.736-.12 1.152-.12c.672 0 1.268.116 1.788.348.52.224.952.544 1.296.96.352.408.616.9.792 1.476.184.568.276 1.196.276 1.884V170h-2.964v-7.836c0-.752-.176-1.332-.528-1.74-.344-.416-.864-.624-1.56-.624-.512 0-.992.116-1.44.348s-.872.548-1.272.948V170h-2.964zm17.684.192c-1.064 0-1.884-.3-2.46-.9-.576-.608-.864-1.444-.864-2.508v-6.876h-1.248c-.16 0-.3-.052-.42-.156-.112-.104-.168-.26-.168-.468v-1.176l1.98-.324.624-3.36c.032-.16.104-.284.216-.372.12-.088.268-.132.444-.132h1.536v3.876h3.24v2.112h-3.24v6.672c0 .384.096.684.288.9s.448.324.768.324c.184 0 .336-.02.456-.06.128-.048.236-.096.324-.144l.252-.132c.072-.048.144-.072.216-.072.088 0 .16.024.216.072.056.04.116.104.18.192l.888 1.44c-.432.36-.928.632-1.488.816s-1.14.276-1.74.276zm10.325-12.696c.776 0 1.488.124 2.136.372.656.248 1.22.612 1.692 1.092.472.472.84 1.056 1.104 1.752.264.688.396 1.476.396 2.364 0 .224-.012.412-.036.564-.016.144-.052.26-.108.348-.048.08-.116.14-.204.18-.088.032-.2.048-.336.048h-7.608c.088 1.264.428 2.192 1.02 2.784s1.376.888 2.352.888c.48 0 .892-.056 1.236-.168.352-.112.656-.236.912-.372l.684-.372c.2-.112.392-.168.576-.168.12 0 .224.024.312.072s.164.116.228.204l.864 1.08c-.328.384-.696.708-1.104.972-.408.256-.836.464-1.284.624-.44.152-.892.26-1.356.324-.456.064-.9.096-1.332.096-.856 0-1.652-.14-2.388-.42-.736-.288-1.376-.708-1.92-1.26-.544-.56-.972-1.248-1.284-2.064-.312-.824-.468-1.776-.468-2.856 0-.84.136-1.628.408-2.364.272-.744.66-1.388 1.164-1.932.512-.552 1.132-.988 1.86-1.308.736-.32 1.564-.48 2.484-.48zm.06 2.124c-.864 0-1.54.244-2.028.732s-.8 1.18-.936 2.076h5.568c0-.384-.052-.744-.156-1.08-.104-.344-.264-.644-.48-.9s-.488-.456-.816-.6c-.328-.152-.712-.228-1.152-.228zm7.673 10.38v-12.312h1.812c.384 0 .636.18.756.54l.204.972c.248-.256.508-.488.78-.696.28-.208.572-.388.876-.54.312-.152.644-.268.996-.348s.736-.12 1.152-.12c.672 0 1.268.116 1.788.348.52.224.952.544 1.296.96.352.408.616.9.792 1.476.184.568.276 1.196.276 1.884V170h-2.964v-7.836c0-.752-.176-1.332-.528-1.74-.344-.416-.864-.624-1.56-.624-.512 0-.992.116-1.44.348s-.872.548-1.272.948V170h-2.964zm12.932-1.632c0-.248.044-.484.132-.708.096-.224.224-.416.384-.576.168-.16.364-.288.588-.384s.464-.144.72-.144c.248 0 .484.048.708.144s.416.224.576.384.288.352.384.576.144.46.144.708c0 .256-.048.496-.144.72-.096.216-.224.404-.384.564s-.352.284-.576.372c-.224.096-.46.144-.708.144-.256 0-.496-.048-.72-.144-.224-.088-.42-.212-.588-.372-.16-.16-.288-.348-.384-.564-.088-.224-.132-.464-.132-.72zm5.391 0c0-.248.044-.484.132-.708.096-.224.224-.416.384-.576.168-.16.364-.288.588-.384s.464-.144.72-.144c.248 0 .484.048.708.144s.416.224.576.384.288.352.384.576.144.46.144.708c0 .256-.048.496-.144.72-.096.216-.224.404-.384.564s-.352.284-.576.372c-.224.096-.46.144-.708.144-.256 0-.496-.048-.72-.144-.224-.088-.42-.212-.588-.372-.16-.16-.288-.348-.384-.564-.088-.224-.132-.464-.132-.72zm5.391 0c0-.248.044-.484.132-.708.096-.224.224-.416.384-.576.168-.16.364-.288.588-.384s.464-.144.72-.144c.248 0 .484.048.708.144s.416.224.576.384.288.352.384.576.144.46.144.708c0 .256-.048.496-.144.72-.096.216-.224.404-.384.564s-.352.284-.576.372c-.224.096-.46.144-.708.144-.256 0-.496-.048-.72-.144-.224-.088-.42-.212-.588-.372-.16-.16-.288-.348-.384-.564-.088-.224-.132-.464-.132-.72z" fill="#00438b"/><path d="M198.938 92.5625h-4.116c.702-2.0098 1.053-4.0514 1.053-6.125h3.063c.829 0 1.547.3031 2.153.9092s.909 1.3318.909 2.1772-.303 1.5632-.909 2.1533-1.324.8853-2.153.8853zm-1.532-11.1494l-1.962 1.1484c-.414-2.0097-1.18-3.9079-2.297-5.6943l1.245-.7178c.733-.4466 1.499-.5583 2.296-.3349s1.412.7018 1.843 1.4355.534 1.5073.311 2.3208-.702 1.4276-1.436 1.8423zm-6.986-8.0391c-1.436-1.4355-3.11-2.5999-5.024-3.4931l.191-.2871c.415-.7338 1.029-1.2123 1.842-1.4356s1.587-.1196 2.321.311 1.212 1.0448 1.436 1.8423.111 1.5632-.335 2.2969l-.431.7656zm.431 33.018c.446.733.558 1.499.335 2.296s-.702 1.412-1.436 1.843-1.507.534-2.321.311-1.427-.702-1.842-1.436l-3.11-5.311c2.009-.543 3.86-1.404 5.55-2.584l2.824 4.881zM177.476 114c-.845 0-1.563-.295-2.153-.885s-.885-1.316-.885-2.177v-6.508c1.02.255 2.041.382 3.062.382.957 0 1.978-.095 3.062-.287v6.413c0 .861-.303 1.587-.909 2.177s-1.332.885-2.177.885zm.024-30.625c-1.053 0-1.882-.4307-2.488-1.292-2.903.4466-5.256 1.5871-7.058 3.4214s-2.704 4.187-2.704 7.0581h-9.188c-.829 0-1.547-.2951-2.153-.8853S153 90.3693 153 89.5239s.303-1.5711.909-2.1772 1.324-.9092 2.153-.9092h10.097l-8.565-5.0244c-.734-.4147-1.212-1.0288-1.436-1.8423s-.119-1.5871.311-2.3208 1.045-1.2122 1.843-1.4355 1.563-.1117 2.296.3349l8.422 4.8809-4.881-8.4219c-.446-.7337-.558-1.4994-.335-2.2969s.702-1.4116 1.436-1.8423 1.507-.5343 2.321-.311 1.427.7018 1.842 1.4356l5.025 8.5654V68.0625c0-.8294.295-1.5472.885-2.1533S176.639 65 177.5 65s1.587.3031 2.177.9092.885 1.3239.885 2.1533v12.25c0 .8613-.303 1.5871-.909 2.1772s-1.324.8853-2.153.8853zm-19.906 14.2119l7.704-4.498c.064 2.1692.67 4.1631 1.818 5.9814l-6.508 3.7807c-.733.446-1.499.558-2.296.335s-1.412-.702-1.843-1.436-.534-1.507-.311-2.3208.702-1.4276 1.436-1.8423zm10.24 2.4401c1.308 1.723 2.919 2.983 4.833 3.781l-3.254 5.598c-.415.734-1.029 1.212-1.842 1.436s-1.587.119-2.321-.311-1.212-1.045-1.436-1.843-.111-1.563.335-2.296l3.685-6.365zm25.744-4.6891l3.828 2.249c.734.4147 1.212 1.0288 1.436 1.8423s.119 1.5868-.311 2.3208-1.045 1.212-1.843 1.436-1.563.111-2.296-.335l-4.69-2.728c1.595-1.4036 2.887-2.9987 3.876-4.7851z" fill="#c9c9c9"/><defs><filter id="A" x="0" y="0" width="341" height="228" filterUnits="userSpaceOnUse" color-interpolation-filters="sRGB"><feFlood flood-opacity="0" result="A"/><feColorMatrix in="SourceAlpha" values="0 0 0 0 0 0 0 0 0 0 0 0 0 0 0 0 0 0 127 0"/><feMorphology radius="2" operator="dilate" in="SourceAlpha"/><feOffset/><feGaussianBlur stdDeviation="4"/><feColorMatrix values="0 0 0 0 0 0 0 0 0 0 0 0 0 0 0 0 0 0 0.15 0"/><feBlend in2="A"/><feBlend in="SourceGraphic"/></filter></defs></svg>