<svg width="341" height="228" viewBox="0 0 341 228" fill="none" xmlns="http://www.w3.org/2000/svg">
<g filter="url(#filter0_d)">
<rect x="10" y="10" width="321" height="208" rx="7" fill="white"/>
</g>
<path d="M85.5148 162.8C85.6508 163.056 85.7748 163.324 85.8868 163.604C86.0068 163.876 86.1228 164.152 86.2348 164.432C86.3468 164.144 86.4628 163.86 86.5828 163.58C86.7028 163.3 86.8308 163.032 86.9668 162.776L92.1028 153.164C92.1668 153.044 92.2308 152.948 92.2948 152.876C92.3668 152.804 92.4428 152.752 92.5228 152.72C92.6108 152.688 92.7068 152.668 92.8108 152.66C92.9148 152.652 93.0388 152.648 93.1828 152.648H95.6188V170H92.7748V158.792C92.7748 158.584 92.7788 158.356 92.7868 158.108C92.8028 157.86 92.8228 157.608 92.8468 157.352L87.6028 167.192C87.4828 167.416 87.3268 167.592 87.1348 167.72C86.9428 167.84 86.7188 167.9 86.4628 167.9H86.0188C85.7628 167.9 85.5388 167.84 85.3468 167.72C85.1548 167.592 84.9988 167.416 84.8788 167.192L79.5628 157.316C79.5948 157.58 79.6148 157.84 79.6228 158.096C79.6388 158.344 79.6468 158.576 79.6468 158.792V170H76.8028V152.648H79.2388C79.3828 152.648 79.5068 152.652 79.6108 152.66C79.7148 152.668 79.8068 152.688 79.8868 152.72C79.9748 152.752 80.0548 152.804 80.1268 152.876C80.1988 152.948 80.2668 153.044 80.3308 153.164L85.5148 162.8ZM104.035 157.496C104.811 157.496 105.523 157.62 106.171 157.868C106.827 158.116 107.391 158.48 107.863 158.96C108.335 159.432 108.703 160.016 108.967 160.712C109.231 161.4 109.363 162.188 109.363 163.076C109.363 163.3 109.351 163.488 109.327 163.64C109.311 163.784 109.275 163.9 109.219 163.988C109.171 164.068 109.103 164.128 109.015 164.168C108.927 164.2 108.815 164.216 108.679 164.216H101.071C101.159 165.48 101.499 166.408 102.091 167C102.683 167.592 103.467 167.888 104.443 167.888C104.923 167.888 105.335 167.832 105.679 167.72C106.031 167.608 106.335 167.484 106.591 167.348C106.855 167.212 107.083 167.088 107.275 166.976C107.475 166.864 107.667 166.808 107.851 166.808C107.971 166.808 108.075 166.832 108.163 166.88C108.251 166.928 108.327 166.996 108.391 167.084L109.255 168.164C108.927 168.548 108.559 168.872 108.151 169.136C107.743 169.392 107.315 169.6 106.867 169.76C106.427 169.912 105.975 170.02 105.511 170.084C105.055 170.148 104.611 170.18 104.179 170.18C103.323 170.18 102.527 170.04 101.791 169.76C101.055 169.472 100.415 169.052 99.8713 168.5C99.3273 167.94 98.8993 167.252 98.5873 166.436C98.2753 165.612 98.1193 164.66 98.1193 163.58C98.1193 162.74 98.2553 161.952 98.5273 161.216C98.7993 160.472 99.1873 159.828 99.6913 159.284C100.203 158.732 100.823 158.296 101.551 157.976C102.287 157.656 103.115 157.496 104.035 157.496ZM104.095 159.62C103.231 159.62 102.555 159.864 102.067 160.352C101.579 160.84 101.267 161.532 101.131 162.428H106.699C106.699 162.044 106.647 161.684 106.543 161.348C106.439 161.004 106.279 160.704 106.063 160.448C105.847 160.192 105.575 159.992 105.247 159.848C104.919 159.696 104.535 159.62 104.095 159.62ZM111.768 170V157.688H113.58C113.964 157.688 114.216 157.868 114.336 158.228L114.528 159.14C114.744 158.9 114.968 158.68 115.2 158.48C115.44 158.28 115.692 158.108 115.956 157.964C116.228 157.82 116.516 157.708 116.82 157.628C117.132 157.54 117.472 157.496 117.84 157.496C118.616 157.496 119.252 157.708 119.748 158.132C120.252 158.548 120.628 159.104 120.876 159.8C121.068 159.392 121.308 159.044 121.596 158.756C121.884 158.46 122.2 158.22 122.544 158.036C122.888 157.852 123.252 157.716 123.636 157.628C124.028 157.54 124.42 157.496 124.812 157.496C125.492 157.496 126.096 157.6 126.624 157.808C127.152 158.016 127.596 158.32 127.956 158.72C128.316 159.12 128.588 159.608 128.772 160.184C128.964 160.76 129.06 161.42 129.06 162.164V170H126.096V162.164C126.096 161.38 125.924 160.792 125.58 160.4C125.236 160 124.732 159.8 124.068 159.8C123.764 159.8 123.48 159.852 123.216 159.956C122.96 160.06 122.732 160.212 122.532 160.412C122.34 160.604 122.188 160.848 122.076 161.144C121.964 161.44 121.908 161.78 121.908 162.164V170H118.932V162.164C118.932 161.34 118.764 160.74 118.428 160.364C118.1 159.988 117.612 159.8 116.964 159.8C116.54 159.8 116.14 159.908 115.764 160.124C115.396 160.332 115.052 160.62 114.732 160.988V170H111.768ZM134.683 157.688V165.512C134.683 166.264 134.855 166.848 135.199 167.264C135.551 167.672 136.075 167.876 136.771 167.876C137.283 167.876 137.763 167.764 138.211 167.54C138.659 167.308 139.083 166.992 139.483 166.592V157.688H142.447V170H140.635C140.251 170 139.999 169.82 139.879 169.46L139.675 168.476C139.419 168.732 139.155 168.968 138.883 169.184C138.611 169.392 138.319 169.572 138.007 169.724C137.703 169.868 137.371 169.98 137.011 170.06C136.659 170.148 136.279 170.192 135.871 170.192C135.199 170.192 134.603 170.08 134.083 169.856C133.571 169.624 133.139 169.3 132.787 168.884C132.435 168.468 132.167 167.976 131.983 167.408C131.807 166.832 131.719 166.2 131.719 165.512V157.688H134.683ZM155.259 170H153.927C153.647 170 153.427 169.96 153.267 169.88C153.107 169.792 152.987 169.62 152.907 169.364L152.643 168.488C152.331 168.768 152.023 169.016 151.719 169.232C151.423 169.44 151.115 169.616 150.795 169.76C150.475 169.904 150.135 170.012 149.775 170.084C149.415 170.156 149.015 170.192 148.575 170.192C148.055 170.192 147.575 170.124 147.135 169.988C146.695 169.844 146.315 169.632 145.995 169.352C145.683 169.072 145.439 168.724 145.263 168.308C145.087 167.892 144.999 167.408 144.999 166.856C144.999 166.392 145.119 165.936 145.359 165.488C145.607 165.032 146.015 164.624 146.583 164.264C147.151 163.896 147.907 163.592 148.851 163.352C149.795 163.112 150.967 162.976 152.367 162.944V162.224C152.367 161.4 152.191 160.792 151.839 160.4C151.495 160 150.991 159.8 150.327 159.8C149.847 159.8 149.447 159.856 149.127 159.968C148.807 160.08 148.527 160.208 148.287 160.352C148.055 160.488 147.839 160.612 147.639 160.724C147.439 160.836 147.219 160.892 146.979 160.892C146.779 160.892 146.607 160.84 146.463 160.736C146.319 160.632 146.203 160.504 146.115 160.352L145.575 159.404C146.991 158.108 148.699 157.46 150.699 157.46C151.419 157.46 152.059 157.58 152.619 157.82C153.187 158.052 153.667 158.38 154.059 158.804C154.451 159.22 154.747 159.72 154.947 160.304C155.155 160.888 155.259 161.528 155.259 162.224V170ZM149.499 168.152C149.803 168.152 150.083 168.124 150.339 168.068C150.595 168.012 150.835 167.928 151.059 167.816C151.291 167.704 151.511 167.568 151.719 167.408C151.935 167.24 152.151 167.044 152.367 166.82V164.744C151.503 164.784 150.779 164.86 150.195 164.972C149.619 165.076 149.155 165.212 148.803 165.38C148.451 165.548 148.199 165.744 148.047 165.968C147.903 166.192 147.831 166.436 147.831 166.7C147.831 167.22 147.983 167.592 148.287 167.816C148.599 168.04 149.003 168.152 149.499 168.152ZM162.218 170.192C161.154 170.192 160.334 169.892 159.758 169.292C159.182 168.684 158.894 167.848 158.894 166.784V159.908H157.646C157.486 159.908 157.346 159.856 157.226 159.752C157.114 159.648 157.058 159.492 157.058 159.284V158.108L159.038 157.784L159.662 154.424C159.694 154.264 159.766 154.14 159.878 154.052C159.998 153.964 160.146 153.92 160.322 153.92H161.858V157.796H165.098V159.908H161.858V166.58C161.858 166.964 161.954 167.264 162.146 167.48C162.338 167.696 162.594 167.804 162.914 167.804C163.098 167.804 163.25 167.784 163.37 167.744C163.498 167.696 163.606 167.648 163.694 167.6C163.79 167.552 163.874 167.508 163.946 167.468C164.018 167.42 164.09 167.396 164.162 167.396C164.25 167.396 164.322 167.42 164.378 167.468C164.434 167.508 164.494 167.572 164.558 167.66L165.446 169.1C165.014 169.46 164.518 169.732 163.958 169.916C163.398 170.1 162.818 170.192 162.218 170.192ZM175.6 159.92H176.356C176.66 159.92 176.912 159.88 177.112 159.8C177.312 159.712 177.484 159.576 177.628 159.392L182.416 153.332C182.616 153.076 182.824 152.9 183.04 152.804C183.264 152.7 183.544 152.648 183.88 152.648H186.664L180.82 159.86C180.636 160.084 180.46 160.272 180.292 160.424C180.124 160.576 179.944 160.7 179.752 160.796C180.016 160.892 180.252 161.028 180.46 161.204C180.676 161.38 180.884 161.604 181.084 161.876L187.108 170H184.252C183.868 170 183.58 169.948 183.388 169.844C183.204 169.732 183.048 169.572 182.92 169.364L178.012 162.956C177.852 162.748 177.672 162.6 177.472 162.512C177.272 162.416 176.988 162.368 176.62 162.368H175.6V170H172.372V152.636H175.6V159.92ZM193.594 157.496C194.514 157.496 195.346 157.644 196.09 157.94C196.842 158.236 197.482 158.656 198.01 159.2C198.538 159.744 198.946 160.408 199.234 161.192C199.522 161.976 199.666 162.852 199.666 163.82C199.666 164.796 199.522 165.676 199.234 166.46C198.946 167.244 198.538 167.912 198.01 168.464C197.482 169.016 196.842 169.44 196.09 169.736C195.346 170.032 194.514 170.18 193.594 170.18C192.674 170.18 191.838 170.032 191.086 169.736C190.334 169.44 189.69 169.016 189.154 168.464C188.626 167.912 188.214 167.244 187.918 166.46C187.63 165.676 187.486 164.796 187.486 163.82C187.486 162.852 187.63 161.976 187.918 161.192C188.214 160.408 188.626 159.744 189.154 159.2C189.69 158.656 190.334 158.236 191.086 157.94C191.838 157.644 192.674 157.496 193.594 157.496ZM193.594 167.9C194.618 167.9 195.374 167.556 195.862 166.868C196.358 166.18 196.606 165.172 196.606 163.844C196.606 162.516 196.358 161.504 195.862 160.808C195.374 160.112 194.618 159.764 193.594 159.764C192.554 159.764 191.786 160.116 191.29 160.82C190.794 161.516 190.546 162.524 190.546 163.844C190.546 165.164 190.794 166.172 191.29 166.868C191.786 167.556 192.554 167.9 193.594 167.9ZM201.979 170V157.688H203.791C204.175 157.688 204.427 157.868 204.547 158.228L204.751 159.2C204.999 158.944 205.259 158.712 205.531 158.504C205.811 158.296 206.103 158.116 206.407 157.964C206.719 157.812 207.051 157.696 207.403 157.616C207.755 157.536 208.139 157.496 208.555 157.496C209.227 157.496 209.823 157.612 210.343 157.844C210.863 158.068 211.295 158.388 211.639 158.804C211.991 159.212 212.255 159.704 212.431 160.28C212.615 160.848 212.707 161.476 212.707 162.164V170H209.743V162.164C209.743 161.412 209.567 160.832 209.215 160.424C208.871 160.008 208.351 159.8 207.655 159.8C207.143 159.8 206.663 159.916 206.215 160.148C205.767 160.38 205.343 160.696 204.943 161.096V170H201.979ZM219.663 170.192C218.599 170.192 217.779 169.892 217.203 169.292C216.627 168.684 216.339 167.848 216.339 166.784V159.908H215.091C214.931 159.908 214.791 159.856 214.671 159.752C214.559 159.648 214.503 159.492 214.503 159.284V158.108L216.483 157.784L217.107 154.424C217.139 154.264 217.211 154.14 217.323 154.052C217.443 153.964 217.591 153.92 217.767 153.92H219.303V157.796H222.543V159.908H219.303V166.58C219.303 166.964 219.399 167.264 219.591 167.48C219.783 167.696 220.039 167.804 220.359 167.804C220.543 167.804 220.695 167.784 220.815 167.744C220.943 167.696 221.051 167.648 221.139 167.6C221.235 167.552 221.319 167.508 221.391 167.468C221.463 167.42 221.535 167.396 221.607 167.396C221.695 167.396 221.767 167.42 221.823 167.468C221.879 167.508 221.939 167.572 222.003 167.66L222.891 169.1C222.459 169.46 221.963 169.732 221.403 169.916C220.843 170.1 220.263 170.192 219.663 170.192ZM229.988 157.496C230.764 157.496 231.476 157.62 232.124 157.868C232.78 158.116 233.344 158.48 233.816 158.96C234.288 159.432 234.656 160.016 234.92 160.712C235.184 161.4 235.316 162.188 235.316 163.076C235.316 163.3 235.304 163.488 235.28 163.64C235.264 163.784 235.228 163.9 235.172 163.988C235.124 164.068 235.056 164.128 234.968 164.168C234.88 164.2 234.768 164.216 234.632 164.216H227.024C227.112 165.48 227.452 166.408 228.044 167C228.636 167.592 229.42 167.888 230.396 167.888C230.876 167.888 231.288 167.832 231.632 167.72C231.984 167.608 232.288 167.484 232.544 167.348C232.808 167.212 233.036 167.088 233.228 166.976C233.428 166.864 233.62 166.808 233.804 166.808C233.924 166.808 234.028 166.832 234.116 166.88C234.204 166.928 234.28 166.996 234.344 167.084L235.208 168.164C234.88 168.548 234.512 168.872 234.104 169.136C233.696 169.392 233.268 169.6 232.82 169.76C232.38 169.912 231.928 170.02 231.464 170.084C231.008 170.148 230.564 170.18 230.132 170.18C229.276 170.18 228.48 170.04 227.744 169.76C227.008 169.472 226.368 169.052 225.824 168.5C225.28 167.94 224.852 167.252 224.54 166.436C224.228 165.612 224.072 164.66 224.072 163.58C224.072 162.74 224.208 161.952 224.48 161.216C224.752 160.472 225.14 159.828 225.644 159.284C226.156 158.732 226.776 158.296 227.504 157.976C228.24 157.656 229.068 157.496 229.988 157.496ZM230.048 159.62C229.184 159.62 228.508 159.864 228.02 160.352C227.532 160.84 227.22 161.532 227.084 162.428H232.652C232.652 162.044 232.6 161.684 232.496 161.348C232.392 161.004 232.232 160.704 232.016 160.448C231.8 160.192 231.528 159.992 231.2 159.848C230.872 159.696 230.488 159.62 230.048 159.62ZM237.721 170V157.688H239.533C239.917 157.688 240.169 157.868 240.289 158.228L240.493 159.2C240.741 158.944 241.001 158.712 241.273 158.504C241.553 158.296 241.845 158.116 242.149 157.964C242.461 157.812 242.793 157.696 243.145 157.616C243.497 157.536 243.881 157.496 244.297 157.496C244.969 157.496 245.565 157.612 246.085 157.844C246.605 158.068 247.037 158.388 247.381 158.804C247.733 159.212 247.997 159.704 248.173 160.28C248.357 160.848 248.449 161.476 248.449 162.164V170H245.485V162.164C245.485 161.412 245.309 160.832 244.957 160.424C244.613 160.008 244.093 159.8 243.397 159.8C242.885 159.8 242.405 159.916 241.957 160.148C241.509 160.38 241.085 160.696 240.685 161.096V170H237.721ZM250.653 168.368C250.653 168.12 250.697 167.884 250.785 167.66C250.881 167.436 251.009 167.244 251.169 167.084C251.337 166.924 251.533 166.796 251.757 166.7C251.981 166.604 252.221 166.556 252.477 166.556C252.725 166.556 252.961 166.604 253.185 166.7C253.409 166.796 253.601 166.924 253.761 167.084C253.921 167.244 254.049 167.436 254.145 167.66C254.241 167.884 254.289 168.12 254.289 168.368C254.289 168.624 254.241 168.864 254.145 169.088C254.049 169.304 253.921 169.492 253.761 169.652C253.601 169.812 253.409 169.936 253.185 170.024C252.961 170.12 252.725 170.168 252.477 170.168C252.221 170.168 251.981 170.12 251.757 170.024C251.533 169.936 251.337 169.812 251.169 169.652C251.009 169.492 250.881 169.304 250.785 169.088C250.697 168.864 250.653 168.624 250.653 168.368ZM256.044 168.368C256.044 168.12 256.088 167.884 256.176 167.66C256.272 167.436 256.4 167.244 256.56 167.084C256.728 166.924 256.924 166.796 257.148 166.7C257.372 166.604 257.612 166.556 257.868 166.556C258.116 166.556 258.352 166.604 258.576 166.7C258.8 166.796 258.992 166.924 259.152 167.084C259.312 167.244 259.44 167.436 259.536 167.66C259.632 167.884 259.68 168.12 259.68 168.368C259.68 168.624 259.632 168.864 259.536 169.088C259.44 169.304 259.312 169.492 259.152 169.652C258.992 169.812 258.8 169.936 258.576 170.024C258.352 170.12 258.116 170.168 257.868 170.168C257.612 170.168 257.372 170.12 257.148 170.024C256.924 169.936 256.728 169.812 256.56 169.652C256.4 169.492 256.272 169.304 256.176 169.088C256.088 168.864 256.044 168.624 256.044 168.368ZM261.435 168.368C261.435 168.12 261.479 167.884 261.567 167.66C261.663 167.436 261.791 167.244 261.951 167.084C262.119 166.924 262.315 166.796 262.539 166.7C262.763 166.604 263.003 166.556 263.259 166.556C263.507 166.556 263.743 166.604 263.967 166.7C264.191 166.796 264.383 166.924 264.543 167.084C264.703 167.244 264.831 167.436 264.927 167.66C265.023 167.884 265.071 168.12 265.071 168.368C265.071 168.624 265.023 168.864 264.927 169.088C264.831 169.304 264.703 169.492 264.543 169.652C264.383 169.812 264.191 169.936 263.967 170.024C263.743 170.12 263.507 170.168 263.259 170.168C263.003 170.168 262.763 170.12 262.539 170.024C262.315 169.936 262.119 169.812 261.951 169.652C261.791 169.492 261.663 169.304 261.567 169.088C261.479 168.864 261.435 168.624 261.435 168.368Z" fill="#00438B"/>
<path d="M198.938 92.5625H194.822C195.524 90.5527 195.875 88.5111 195.875 86.4375H198.938C199.767 86.4375 200.485 86.7406 201.091 87.3467C201.697 87.9528 202 88.6785 202 89.5239C202 90.3693 201.697 91.0871 201.091 91.6772C200.485 92.2674 199.767 92.5625 198.938 92.5625ZM197.406 81.4131L195.444 82.5615C195.03 80.5518 194.264 78.6536 193.147 76.8672L194.392 76.1494C195.125 75.7028 195.891 75.5911 196.688 75.8145C197.486 76.0378 198.1 76.5163 198.531 77.25C198.961 77.9837 199.065 78.7573 198.842 79.5708C198.618 80.3843 198.14 80.9984 197.406 81.4131ZM190.42 73.374C188.984 71.9385 187.31 70.7741 185.396 69.8809L185.587 69.5938C186.002 68.86 186.616 68.3815 187.429 68.1582C188.243 67.9349 189.016 68.0386 189.75 68.4692C190.484 68.8999 190.962 69.514 191.186 70.3115C191.409 71.109 191.297 71.8747 190.851 72.6084L190.42 73.374ZM190.851 106.392C191.297 107.125 191.409 107.891 191.186 108.688C190.962 109.486 190.484 110.1 189.75 110.531C189.016 110.961 188.243 111.065 187.429 110.842C186.616 110.618 186.002 110.14 185.587 109.406L182.477 104.095C184.486 103.552 186.337 102.691 188.027 101.511L190.851 106.392ZM177.476 114C176.631 114 175.913 113.705 175.323 113.115C174.733 112.525 174.438 111.799 174.438 110.938V104.43C175.458 104.685 176.479 104.812 177.5 104.812C178.457 104.812 179.478 104.717 180.562 104.525V110.938C180.562 111.799 180.259 112.525 179.653 113.115C179.047 113.705 178.321 114 177.476 114ZM177.5 83.375C176.447 83.375 175.618 82.9443 175.012 82.083C172.109 82.5296 169.756 83.6701 167.954 85.5044C166.151 87.3387 165.25 89.6914 165.25 92.5625H156.062C155.233 92.5625 154.515 92.2674 153.909 91.6772C153.303 91.0871 153 90.3693 153 89.5239C153 88.6785 153.303 87.9528 153.909 87.3467C154.515 86.7406 155.233 86.4375 156.062 86.4375H166.159L157.594 81.4131C156.86 80.9984 156.382 80.3843 156.158 79.5708C155.935 78.7573 156.039 77.9837 156.469 77.25C156.9 76.5163 157.514 76.0378 158.312 75.8145C159.109 75.5911 159.875 75.7028 160.608 76.1494L169.03 81.0303L164.149 72.6084C163.703 71.8747 163.591 71.109 163.814 70.3115C164.038 69.514 164.516 68.8999 165.25 68.4692C165.984 68.0386 166.757 67.9349 167.571 68.1582C168.384 68.3815 168.998 68.86 169.413 69.5938L174.438 78.1592V68.0625C174.438 67.2331 174.733 66.5153 175.323 65.9092C175.913 65.3031 176.639 65 177.5 65C178.361 65 179.087 65.3031 179.677 65.9092C180.267 66.5153 180.562 67.2331 180.562 68.0625V80.3125C180.562 81.1738 180.259 81.8996 179.653 82.4897C179.047 83.0799 178.329 83.375 177.5 83.375ZM157.594 97.5869L165.298 93.0889C165.362 95.2581 165.968 97.252 167.116 99.0703L160.608 102.851C159.875 103.297 159.109 103.409 158.312 103.186C157.514 102.962 156.9 102.484 156.469 101.75C156.039 101.016 155.935 100.243 156.158 99.4292C156.382 98.6157 156.86 98.0016 157.594 97.5869ZM167.834 100.027C169.142 101.75 170.753 103.01 172.667 103.808L169.413 109.406C168.998 110.14 168.384 110.618 167.571 110.842C166.757 111.065 165.984 110.961 165.25 110.531C164.516 110.1 164.038 109.486 163.814 108.688C163.591 107.891 163.703 107.125 164.149 106.392L167.834 100.027ZM193.578 95.3379L197.406 97.5869C198.14 98.0016 198.618 98.6157 198.842 99.4292C199.065 100.243 198.961 101.016 198.531 101.75C198.1 102.484 197.486 102.962 196.688 103.186C195.891 103.409 195.125 103.297 194.392 102.851L189.702 100.123C191.297 98.7194 192.589 97.1243 193.578 95.3379Z" fill="#C9C9C9"/>
<defs>
<filter id="filter0_d" x="0" y="0" width="341" height="228" filterUnits="userSpaceOnUse" color-interpolation-filters="sRGB">
<feFlood flood-opacity="0" result="BackgroundImageFix"/>
<feColorMatrix in="SourceAlpha" type="matrix" values="0 0 0 0 0 0 0 0 0 0 0 0 0 0 0 0 0 0 127 0"/>
<feMorphology radius="2" operator="dilate" in="SourceAlpha" result="effect1_dropShadow"/>
<feOffset/>
<feGaussianBlur stdDeviation="4"/>
<feColorMatrix type="matrix" values="0 0 0 0 0 0 0 0 0 0 0 0 0 0 0 0 0 0 0.15 0"/>
<feBlend mode="normal" in2="BackgroundImageFix" result="effect1_dropShadow"/>
<feBlend mode="normal" in="SourceGraphic" in2="effect1_dropShadow" result="shape"/>
</filter>
</defs>
</svg>
