<svg xmlns="http://www.w3.org/2000/svg" width="103" height="94" fill="none" xmlns:v="https://vecta.io/nano"><rect x=".25" y=".25" width="102.5" height="93.5" rx="6.75" stroke="#dbdbdb" stroke-width=".5"/><path d="M41.508 74.727c.486 0 .912-.063 1.278-.189.372-.126.681-.303.927-.531.252-.234.441-.51.567-.828.126-.324.189-.681.189-1.071 0-.786-.246-1.404-.738-1.854-.486-.45-1.227-.675-2.223-.675H39.51v5.148h1.998zm0-6.651c.828 0 1.548.096 2.16.288s1.119.465 1.521.819c.402.348.699.771.891 1.269.198.498.297 1.05.297 1.656s-.105 1.164-.315 1.674c-.21.504-.519.939-.927 1.305s-.918.651-1.53.855c-.606.198-1.305.297-2.097.297H39.51V81h-1.917V68.076h3.915zm8.1212 5.535c.294-.6.648-1.071 1.062-1.413s.912-.513 1.494-.513c.198 0 .384.024.558.072.18.042.336.108.468.198l-.117 1.323c-.042.162-.141.243-.297.243-.084 0-.21-.015-.378-.045-.168-.036-.348-.054-.54-.054-.282 0-.531.042-.747.126-.216.078-.411.198-.585.36-.168.156-.318.351-.45.585-.132.228-.255.489-.369.783V81h-1.755v-9.144h1.008c.192 0 .321.036.387.108.072.066.123.186.153.36l.108 1.287zm6.7718-1.755V81h-1.755v-9.144h1.755zm.333-2.826c0 .162-.033.318-.099.468-.066.144-.156.273-.27.387-.108.108-.237.195-.387.261-.15.06-.306.09-.468.09s-.315-.03-.459-.09c-.144-.066-.273-.153-.387-.261-.108-.114-.195-.243-.261-.387-.06-.15-.09-.306-.09-.468 0-.168.03-.324.09-.468.066-.15.153-.279.261-.387.114-.114.243-.201.387-.261.144-.066.297-.099.459-.099s.318.033.468.099c.15.06.279.147.387.261.114.108.204.237.27.387.066.144.099.3.099.468zm7.122 7.911c-.714.024-1.32.081-1.818.171-.498.084-.903.198-1.215.342s-.537.315-.675.513c-.138.192-.207.408-.207.648 0 .228.036.426.108.594.078.162.18.297.306.405.132.102.285.177.459.225s.363.072.567.072c.27 0 .516-.027.738-.081.228-.054.441-.129.639-.225.198-.102.387-.225.567-.369s.357-.309.531-.495v-1.8zm-5.148-3.807c.51-.486 1.062-.849 1.656-1.089.6-.24 1.257-.36 1.971-.36.522 0 .984.087 1.386.261.402.168.741.405 1.017.711s.483.672.621 1.098c.144.426.216.897.216 1.413V81h-.783c-.174 0-.306-.027-.396-.081-.09-.06-.162-.168-.216-.324l-.189-.801c-.234.216-.465.408-.693.576-.228.162-.468.303-.72.423-.246.114-.51.201-.792.261s-.594.09-.936.09c-.36 0-.699-.048-1.017-.144-.312-.102-.585-.255-.819-.459s-.42-.459-.558-.765c-.132-.306-.198-.663-.198-1.071 0-.36.096-.705.288-1.035.198-.336.516-.636.954-.9.444-.264 1.02-.48 1.728-.648.714-.168 1.59-.264 2.628-.288v-.666c0-.69-.147-1.206-.441-1.548s-.726-.513-1.296-.513c-.384 0-.708.048-.972.144-.258.096-.483.204-.675.324l-.495.315c-.138.096-.282.144-.432.144-.12 0-.225-.033-.315-.099-.084-.066-.153-.144-.207-.234l-.315-.567z" fill="#161616"/><g clip-path="url(#A)"><path d="M54.7376 32.911v-8.7607c1.185.5063 2.6154.2852 3.5845-.6659.6334-.6216.949-1.4341.949-2.2478s-.3156-1.6273-.949-2.2478l-5.5938-5.4874c-.6785-.667-1.7793-.667-2.4577 0L44.6767 18.99c-1.2645 1.2397-1.2645 3.2524 0 4.4944.6322.6205 1.4601.9301 2.2881.9301.4424 0 .8825-.0885 1.2952-.2642v8.7607C41.2558 34.3719 36 40.4786 36 47.7889c0 8.401 6.939 15.2108 15.4994 15.2108s15.4994-6.8098 15.4994-15.2108C67 40.4786 61.743 34.3719 54.7376 32.911zm-3.2382 24.0821c-5.1811 0-9.3801-4.1207-9.3801-9.2042s4.199-9.2054 9.3801-9.2054 9.3789 4.1208 9.3789 9.2054-4.199 9.2042-9.3789 9.2042z" fill="#62dbfb"/><g fill="#01d0fb"><path d="M53.1351 17.0183l-3.3319-3.0603.4686-.4587c.6784-.667 1.7792-.667 2.4577 0l5.5938 5.4898c.6334.6204.949 1.4341.949 2.2478s-.3156 1.6262-.949 2.2478c-.9691.951-2.3984 1.1722-3.5845.6658v8.7235l-1.077-.1059c-.7698-.0512-1.3724-.6705-1.3724-1.4283v-7.535c0-.7438.5551-1.3829 1.3071-1.4807 1.1103-.1443 2.0995-1.2781 1.9406-2.5598-.0819-.6693-.6975-1.0476-1.1767-1.5133l-1.2253-1.2327zm3.5371 16.4282c4.8383 2.5726 8.1239 7.599 8.1239 13.3797 0 8.4011-6.9401 15.2109-15.4994 15.2109-1.8148 0-3.5572-.3062-5.1763-.8684 2.1943 1.1675 4.7078 1.831 7.3802 1.831C60.0598 62.9997 67 56.19 67 47.7889c0-6.6212-4.3117-12.2529-10.3278-14.3424z"/></g></g><defs><clipPath id="A"><path fill="#fff" transform="translate(36 13)" d="M0 0h31v50H0z"/></clipPath></defs></svg>