<svg width="29" height="19" viewBox="0 0 29 19" fill="none" xmlns="http://www.w3.org/2000/svg">
<g clip-path="url(#clip0)">
<path d="M22.6658 19H7.46568C3.96682 19 1.12793 16.1498 1.12793 12.6292V7.666C1.12793 4.14891 3.96333 1.29523 7.46568 1.29523H22.6658C26.1647 1.29523 29.0035 4.1454 29.0035 7.666V12.6327C29 16.1498 26.1647 19 22.6658 19Z" fill="#40A1A6"/>
<path d="M21.8836 18.0558H6.68699C3.18464 18.0558 0.349243 15.2056 0.349243 11.6885V6.72179C0.349243 3.20119 3.18464 0.351013 6.68699 0.351013H21.8871C25.386 0.351013 28.2214 3.20119 28.2214 6.72179V11.6885C28.2214 15.2056 25.386 18.0558 21.8836 18.0558Z" fill="white" stroke="#40A1A6" stroke-width="2" stroke-miterlimit="10"/>
<path d="M16.1953 8.86994L13.0387 5.69684C12.7453 5.40199 12.239 5.60909 12.239 6.03029V12.3765C12.239 12.7942 12.7418 13.0048 13.0387 12.71L16.1953 9.53685C16.3769 9.35433 16.3769 9.05597 16.1953 8.86994Z" fill="#40A1A6"/>
</g>
<defs>
<clipPath id="clip0">
<rect width="29" height="19" fill="white"/>
</clipPath>
</defs>
</svg>
