<svg xmlns="http://www.w3.org/2000/svg" width="103" height="94" fill="none" xmlns:v="https://vecta.io/nano"><rect x=".25" y=".25" width="102.5" height="93.5" rx="6.75" stroke="#dbdbdb" stroke-width=".5"/><g clip-path="url(#A)"><path d="M67 27.9703C67 19.7021 60.2849 13 51.9994 13S37 19.7021 37 27.9703c0 7.1959 5.0874 13.2049 11.8668 14.6427v7.4353c0 .3231-.2617.5832-.5842.5832h-1.1824c-1.731 0-3.1348 1.4-3.1348 3.1276 0 .8638.3512 1.6463.9183 2.2111s1.3499.9166 2.2165.9166h1.1824c.3225 0 .5842.26.5842.5831v2.4002c0 1.7276 1.4028 3.1276 3.1326 3.1276.8655 0 1.6495-.3506 2.2166-.9165s.9183-1.3473.9183-2.2111v-2.4002c0-.3231.2617-.5831.5843-.5831h1.1823c1.731 0 3.1337-1.4 3.1337-3.1277 0-.8638-.3512-1.6463-.9183-2.2111s-1.351-.9165-2.2154-.9165h-1.1823c-.3226 0-.5843-.2601-.5843-.5832V42.613C61.9137 41.1752 67 35.1662 67 27.9703zm-15.0006 9.0599c-5.0128 0-9.0763-4.0556-9.0763-9.0599s4.0635-9.0587 9.0763-9.0587 9.0775 4.0556 9.0775 9.0587-4.0635 9.0599-9.0775 9.0599z" fill="#fe7ab6"/><g fill="#fe5ca7"><path d="M53.2896 56.9568c-.3225 0-.5843.3162-.5843.6393v2.2764c0 .865-.3512 1.6463-.9183 2.2111-.2846.2842-.6233.5144-.9998.6725.3731.157.7829.2441 1.2133.2441.8656 0 1.6496-.3506 2.2166-.9166s.9183-1.3472.9183-2.2111v-2.4001c0-.2246.1263-.4182.3111-.5156-.3329-.0252-2.1569 0-2.1569 0zm5.8279-5.4079c-.5659-.5671-1.3511-.9165-2.2154-.9165h-1.1824c-.3225 0-.5842-.2612-.5842-.5831V42.575l-.9964.0893c-.8058.0516-1.4326.7218-1.4326 1.5272v7.8672c0 .3197.2583.5832.5786.5832l1.4681-.0206 1.4429.016c1.3132.1398 2.0685 1.1227 1.8045 2.4288-.1423.7011-.5441 1.4241-1.2179 1.7345-.0769.0355-.1561.0653-.2376.0871h.2938c1.7138 0 3.159-1.3473 3.1969-3.0566.0184-.8902-.3352-1.7013-.9183-2.2822zM51.9994 13c-2.4668 0-4.7959.5946-6.8483 1.6486 1.4142-.4411 2.9191-.6794 4.4779-.6794 8.2843 0 14.9995 6.7021 14.9995 14.9704 0 5.8039-3.3082 10.8356-8.1454 13.3194 6.0929-1.9018 10.5157-7.5797 10.5157-14.2898C67 19.7021 60.2849 13 51.9994 13z"/></g></g><path d="M41.468 68.076L37.436 81h-1.728l-3.15-9.585c-.072-.192-.135-.423-.189-.693l-.189.693L28.994 81h-1.719l-4.032-12.924h1.602c.168 0 .309.042.423.126.114.078.189.186.225.324l2.547 8.649c.048.168.09.351.126.549l.126.621.126-.621.162-.549 2.916-8.649c.036-.12.111-.225.225-.315.12-.09.261-.135.423-.135h.549c.168 0 .306.042.414.126s.186.192.234.324l2.907 8.649c.108.33.204.705.288 1.125l.234-1.125 2.556-8.649c.03-.12.105-.225.225-.315s.261-.135.423-.135h1.494zm5.345 8.865c-.714.024-1.32.081-1.818.171-.498.084-.903.198-1.215.342s-.537.315-.675.513c-.138.192-.207.408-.207.648 0 .228.036.426.108.594.078.162.18.297.306.405.132.102.285.177.459.225s.363.072.567.072c.27 0 .516-.027.738-.081.228-.054.441-.129.639-.225.198-.102.387-.225.567-.369s.357-.309.531-.495v-1.8zm-5.148-3.807c.51-.486 1.062-.849 1.656-1.089.6-.24 1.257-.36 1.971-.36.522 0 .984.087 1.386.261.402.168.741.405 1.017.711s.483.672.621 1.098c.144.426.216.897.216 1.413V81h-.783c-.174 0-.306-.027-.396-.081-.09-.06-.162-.168-.216-.324l-.189-.801c-.234.216-.465.408-.693.576-.228.162-.468.303-.72.423-.246.114-.51.201-.792.261s-.594.09-.936.09c-.36 0-.699-.048-1.017-.144-.312-.102-.585-.255-.819-.459s-.42-.459-.558-.765c-.132-.306-.198-.663-.198-1.071 0-.36.096-.705.288-1.035.198-.336.516-.636.954-.9.444-.264 1.02-.48 1.728-.648.714-.168 1.59-.264 2.628-.288v-.666c0-.69-.147-1.206-.441-1.548s-.726-.513-1.296-.513c-.384 0-.708.048-.972.144-.258.096-.483.204-.675.324l-.495.315c-.138.096-.282.144-.432.144-.12 0-.225-.033-.315-.099-.084-.066-.153-.144-.207-.234l-.315-.567zm10.8634-.009c.198-.21.405-.402.621-.576s.444-.321.684-.441c.246-.126.507-.222.783-.288.282-.072.582-.108.9-.108.504 0 .945.084 1.323.252.384.168.705.405.963.711.258.3.453.663.585 1.089s.198.897.198 1.413V81h-1.764v-5.823c0-.654-.15-1.161-.45-1.521-.3-.366-.759-.549-1.377-.549-.45 0-.873.108-1.269.324-.39.21-.753.498-1.089.864V81h-1.755v-9.144h1.053c.246 0 .399.117.459.351l.135.918zm10.2613-1.269V81h-1.755v-9.144h1.755zm.333-2.826c0 .162-.033.318-.099.468-.066.144-.156.273-.27.387-.108.108-.237.195-.387.261-.15.06-.306.09-.468.09s-.315-.03-.459-.09c-.144-.066-.273-.153-.387-.261-.108-.114-.195-.243-.261-.387-.06-.15-.09-.306-.09-.468 0-.168.03-.324.09-.468.066-.15.153-.279.261-.387.114-.114.243-.201.387-.261.144-.066.297-.099.459-.099s.318.033.468.099c.15.06.279.147.387.261.114.108.204.237.27.387.066.144.099.3.099.468zm5.07 12.114c-.738 0-1.308-.207-1.71-.621-.396-.414-.594-1.005-.594-1.773v-5.472h-1.062c-.102 0-.189-.03-.261-.09-.066-.066-.099-.162-.099-.288v-.711l1.485-.207.396-2.727c.024-.102.069-.18.135-.234.072-.06.162-.09.27-.09h.891V72h2.592v1.278h-2.592v5.355c0 .36.087.63.261.81.18.174.408.261.684.261.162 0 .3-.021.414-.063.12-.042.222-.087.306-.135l.216-.144c.06-.042.114-.063.162-.063.06 0 .105.015.135.045.036.024.072.066.108.126l.522.846c-.288.264-.63.468-1.026.612s-.807.216-1.233.216zm8.5734-4.203c-.714.024-1.32.081-1.818.171-.498.084-.903.198-1.215.342s-.537.315-.675.513c-.138.192-.207.408-.207.648 0 .228.036.426.108.594.078.162.18.297.306.405.132.102.285.177.459.225s.363.072.567.072c.27 0 .516-.027.738-.081.228-.054.441-.129.639-.225.198-.102.387-.225.567-.369s.357-.309.531-.495v-1.8zm-5.148-3.807c.51-.486 1.062-.849 1.656-1.089.6-.24 1.257-.36 1.971-.36.522 0 .984.087 1.386.261.402.168.741.405 1.017.711s.483.672.621 1.098c.144.426.216.897.216 1.413V81h-.783c-.174 0-.306-.027-.396-.081-.09-.06-.162-.168-.216-.324l-.189-.801c-.234.216-.465.408-.693.576-.228.162-.468.303-.72.423-.246.114-.51.201-.792.261s-.594.09-.936.09c-.36 0-.699-.048-1.017-.144-.312-.102-.585-.255-.819-.459s-.42-.459-.558-.765c-.132-.306-.198-.663-.198-1.071 0-.36.096-.705.288-1.035.198-.336.516-.636.954-.9.444-.264 1.02-.48 1.728-.648.714-.168 1.59-.264 2.628-.288v-.666c0-.69-.147-1.206-.441-1.548s-.726-.513-1.296-.513c-.384 0-.708.048-.972.144-.258.096-.483.204-.675.324l-.495.315c-.138.096-.282.144-.432.144-.12 0-.225-.033-.315-.099-.084-.066-.153-.144-.207-.234l-.315-.567z" fill="#161616"/><defs><clipPath id="A"><path fill="#fff" transform="translate(37 13)" d="M0 0h30v50H0z"/></clipPath></defs></svg>